<svg width="799" height="167" viewBox="0 0 799 167" fill="none" xmlns="http://www.w3.org/2000/svg">
<path d="M34.1545 2.65H34.2045C40.8545 2.65 44.4545 6.8 44.4545 13.6C44.4545 19.55 41.9545 27.05 37.7545 31.25C34.7045 34.3 31.2045 35.8 26.9045 35.8C20.9045 35.8 16.4045 32.7 16.4045 24.95C16.4045 18.25 19.8045 9.7 25.2545 5.6C27.8545 3.7 30.7545 2.65 34.1545 2.65ZM33.9545 4H33.9045C31.3045 4 28.5545 5.25 26.2545 8.1C22.5545 12.65 20.3045 20.05 20.3045 25.75C20.3045 31.9 23.2545 34.3 26.9545 34.3C29.7545 34.3 32.2545 33.45 34.6545 30.6C38.4045 26.1 40.6045 18.15 40.6045 12.25C40.6045 7.75 38.8045 4 33.9545 4ZM68.5416 28.65L69.4416 29.6C67.8416 32.9 65.0916 35.75 62.0916 35.75C59.3916 35.75 59.7916 32.9 60.5916 30.35C60.7916 29.8 60.8416 29.6 61.1916 28.45C58.2416 32.8 54.3416 35.7 50.5916 35.7C46.8916 35.7 46.5416 33.35 47.6916 29.55C48.9416 25.3 51.5916 17.6 52.0416 16.05C52.1916 15.55 52.0916 15.3 51.4416 15.35L48.4416 15.45L49.0416 14.15C51.2916 13.9 54.6416 13.55 56.5416 12.95C55.2416 15.05 51.6416 25.85 50.4916 30.7C50.0416 32.55 50.6416 33.6 51.9416 33.6C56.2916 33.6 60.6916 27.85 62.7916 22.55C63.7416 20.1 64.7416 17.15 64.9916 16.05C65.0916 15.65 65.0916 15.35 64.3916 15.35L61.3916 15.45L61.8916 14.15C64.2416 13.9 67.1916 13.6 69.2916 12.95C67.3416 17.8 64.2916 26.75 63.1416 31.9C62.8916 32.85 62.8916 33.65 63.5916 33.65C65.0916 33.65 67.3416 31.15 68.5416 28.65ZM73.0381 15.45L73.5381 14.15C75.7881 13.95 78.4381 13.55 80.3381 12.95C80.0381 14.9 78.8881 19.2 78.2881 21.6H78.4381C81.3381 16.05 83.8881 12.95 86.8881 12.95C88.6381 12.95 89.1381 14.4 89.1381 15.25C89.1381 17.15 87.8881 17.8 87.1381 17.8C86.4881 17.8 86.1381 17.45 85.9881 16.85C85.8381 16.15 85.5381 15.75 84.8881 15.75C82.7881 15.75 79.7381 21.2 78.0881 25.25C76.9381 28.05 75.7881 31.3 74.6381 35.1C73.4381 35.2 72.1881 35.3 71.2881 35.5C73.5881 29.05 76.2381 19.8 76.6381 16.2C76.6881 15.65 76.4381 15.4 76.0381 15.4C75.4381 15.4 73.9381 15.4 73.0381 15.45ZM109.567 3.55H109.617C110.767 3.55 111.317 4.35 111.267 5.6C111.217 7 110.117 8 108.917 8C107.917 8 107.167 7.3 107.217 6.05C107.267 4.5 108.517 3.55 109.567 3.55ZM101.717 15.45L102.167 14.15C104.367 13.9 107.367 13.6 109.467 12.95L109.617 13.15C108.067 16.6 104.617 27.65 103.517 31.9C103.267 32.9 103.217 33.6 103.867 33.6C105.517 33.6 107.867 30.9 108.917 28.65L109.817 29.65C107.817 33.6 104.917 35.7 102.217 35.7C99.6666 35.7 99.9666 33.2 100.867 30.3C102.117 26.4 104.217 20.2 105.367 16.15C105.567 15.5 105.467 15.3 104.867 15.35C104.217 15.35 102.917 15.35 101.717 15.45ZM129.011 27.55L129.061 29.8C127.611 32.5 124.011 35.7 119.261 35.7C114.911 35.7 112.661 33.3 112.661 28.7C112.661 23.75 115.111 18.35 119.261 15.25C121.011 14 123.011 12.95 125.561 12.95C129.461 12.95 130.911 15 130.911 17.25C130.911 19.15 129.811 20.15 128.711 20.15C128.161 20.15 127.661 19.9 127.461 19.5C127.311 19.25 127.311 18.7 127.461 18.35C127.661 17.8 127.911 17.2 127.911 16.7C127.911 15.3 127.161 14.3 125.161 14.3C122.761 14.3 120.461 15.95 118.461 19.6C117.011 22.15 116.111 25.55 116.111 28.7C116.111 31.95 117.711 33.9 120.361 33.9C123.911 33.9 126.611 31.35 128.311 27.55H129.011ZM145.869 12.95H145.919C150.219 12.95 152.519 15.65 152.519 20.25C152.519 25.05 150.069 30.9 146.219 33.7C144.119 35.15 142.219 35.7 139.819 35.7C136.869 35.7 133.119 34.4 133.119 28.75C133.119 23.7 135.769 17.65 140.019 14.75C141.669 13.65 143.669 12.95 145.869 12.95ZM145.669 14.3H145.619C143.619 14.3 141.819 15.4 140.169 17.65C138.019 20.5 136.369 25.65 136.369 29.25C136.369 33.05 138.269 34.3 140.219 34.3C141.919 34.3 143.469 33.6 144.919 32C147.519 28.95 149.319 23.1 149.319 19.1C149.319 16.15 148.169 14.3 145.669 14.3ZM177.085 28.7L177.985 29.7C175.985 33.65 172.935 35.75 170.435 35.75C167.785 35.75 167.985 33 169.135 29.9C170.535 26.15 172.135 21.8 173.385 18.25C173.985 16.6 173.785 15 171.985 15C167.035 15 162.135 23.05 160.085 28.65C159.435 30.45 158.735 32.15 157.835 35.1C156.685 35.2 155.585 35.35 154.535 35.5C156.885 29.3 159.635 19.9 160.385 16.2C160.485 15.55 160.435 15.35 159.935 15.35L156.835 15.4L157.285 14.15C159.585 13.9 162.185 13.6 164.435 12.95C163.535 15.9 162.585 19.35 161.785 21.95C164.635 17.65 168.485 12.95 173.485 12.95C174.485 12.95 175.385 13.25 175.885 13.7C177.335 15 176.735 17.85 176.085 19.6C174.735 23.35 172.835 28.15 171.685 31.95C171.385 32.9 171.485 33.55 172.085 33.55C173.585 33.55 175.785 31.25 177.085 28.7ZM190.328 3.55H190.378C191.528 3.55 192.078 4.35 192.028 5.6C191.978 7 190.878 8 189.678 8C188.678 8 187.928 7.3 187.978 6.05C188.028 4.5 189.278 3.55 190.328 3.55ZM182.478 15.45L182.928 14.15C185.128 13.9 188.128 13.6 190.228 12.95L190.378 13.15C188.828 16.6 185.378 27.65 184.278 31.9C184.028 32.9 183.978 33.6 184.628 33.6C186.278 33.6 188.628 30.9 189.678 28.65L190.578 29.65C188.578 33.6 185.678 35.7 182.978 35.7C180.428 35.7 180.728 33.2 181.628 30.3C182.878 26.4 184.978 20.2 186.128 16.15C186.328 15.5 186.228 15.3 185.628 15.35C184.978 15.35 183.678 15.35 182.478 15.45ZM209.772 27.55L209.822 29.8C208.372 32.5 204.772 35.7 200.022 35.7C195.672 35.7 193.422 33.3 193.422 28.7C193.422 23.75 195.872 18.35 200.022 15.25C201.772 14 203.772 12.95 206.322 12.95C210.222 12.95 211.672 15 211.672 17.25C211.672 19.15 210.572 20.15 209.472 20.15C208.922 20.15 208.422 19.9 208.222 19.5C208.072 19.25 208.072 18.7 208.222 18.35C208.422 17.8 208.672 17.2 208.672 16.7C208.672 15.3 207.922 14.3 205.922 14.3C203.522 14.3 201.222 15.95 199.222 19.6C197.772 22.15 196.872 25.55 196.872 28.7C196.872 31.95 198.472 33.9 201.122 33.9C204.672 33.9 207.372 31.35 209.072 27.55H209.772ZM239.783 12.8L240.733 13.4C239.933 15.3 238.833 18.1 238.133 21L236.983 21.1C237.783 16.9 236.683 14.35 233.483 14.35C231.133 14.35 229.683 16.15 229.683 18.25C229.683 19.7 230.233 20.55 231.283 21.4C232.333 22.25 234.183 23.65 235.383 24.55C237.033 25.7 237.833 26.85 237.833 29.05C237.783 31.2 236.683 32.85 235.383 33.9C234.033 35.05 231.983 35.7 229.533 35.7C227.283 35.7 224.633 35 222.733 33.7C223.283 32.4 224.133 29.55 224.933 26.8L226.183 26.6C225.883 27.5 225.633 29.2 225.583 30.1C225.533 32.7 227.033 34.3 230.283 34.3C232.483 34.3 234.733 33.05 234.783 30.35C234.783 28.85 234.183 28.05 233.083 27.2C232.133 26.35 230.733 25.2 229.483 24.2C227.933 23.1 226.783 21.7 226.783 19.5C226.783 17.5 227.583 15.85 229.183 14.55C230.483 13.45 232.083 12.95 234.033 12.95C236.033 12.95 237.833 13.75 238.483 14.7L239.783 12.8ZM245.958 3.1L246.458 1.9C247.758 1.85 252.158 1.55 254.108 1C253.358 2.8 250.858 10.65 247.958 20.75C250.608 17.15 254.758 12.95 259.358 12.95C260.608 12.95 261.258 13.35 261.808 13.85C263.008 15.05 262.458 17.9 261.908 19.55C260.308 24.25 258.558 28.8 257.608 31.85C257.308 32.7 257.258 33.6 258.008 33.6C259.558 33.6 261.708 31.15 262.908 28.65L263.858 29.7C261.808 33.7 259.058 35.75 256.458 35.75C253.758 35.75 254.008 32.9 255.108 29.8C256.758 24.9 258.458 20.4 259.258 17.9C259.608 16.7 259.758 14.85 257.808 14.85C255.658 14.85 252.558 16.85 249.458 21.15C247.608 23.75 246.608 26.15 245.758 28.75C245.158 30.65 244.558 32.45 243.808 35.15C243.108 35.15 241.758 35.3 240.558 35.45C241.758 31.55 244.058 24.6 246.358 16.35C248.608 8.45 249.358 5.7 249.808 3.9C249.908 3.35 249.808 3.1 249.108 3.1H245.958ZM276.168 3.55H276.218C277.368 3.55 277.918 4.35 277.868 5.6C277.818 7 276.718 8 275.518 8C274.518 8 273.768 7.3 273.818 6.05C273.868 4.5 275.118 3.55 276.168 3.55ZM268.318 15.45L268.768 14.15C270.968 13.9 273.968 13.6 276.068 12.95L276.218 13.15C274.668 16.6 271.218 27.65 270.118 31.9C269.868 32.9 269.818 33.6 270.468 33.6C272.118 33.6 274.468 30.9 275.518 28.65L276.418 29.65C274.418 33.6 271.518 35.7 268.818 35.7C266.268 35.7 266.568 33.2 267.468 30.3C268.718 26.4 270.818 20.2 271.968 16.15C272.168 15.5 272.068 15.3 271.468 15.35C270.818 15.35 269.518 15.35 268.318 15.45ZM300.865 28.7L301.765 29.7C299.765 33.65 296.715 35.75 294.215 35.75C291.565 35.75 291.765 33 292.915 29.9C294.315 26.15 295.915 21.8 297.165 18.25C297.765 16.6 297.565 15 295.765 15C290.815 15 285.915 23.05 283.865 28.65C283.215 30.45 282.515 32.15 281.615 35.1C280.465 35.2 279.365 35.35 278.315 35.5C280.665 29.3 283.415 19.9 284.165 16.2C284.265 15.55 284.215 15.35 283.715 15.35L280.615 15.4L281.065 14.15C283.365 13.9 285.965 13.6 288.215 12.95C287.315 15.9 286.365 19.35 285.565 21.95C288.415 17.65 292.265 12.95 297.265 12.95C298.265 12.95 299.165 13.25 299.665 13.7C301.115 15 300.515 17.85 299.865 19.6C298.515 23.35 296.615 28.15 295.465 31.95C295.165 32.9 295.265 33.55 295.865 33.55C297.365 33.55 299.565 31.25 300.865 28.7ZM321.147 27.45L321.247 29.8C318.747 33.8 314.547 35.7 310.897 35.7C306.897 35.7 304.797 33.15 304.797 28.85C304.797 23.85 307.147 18.4 311.247 15.15C313.097 13.7 315.197 12.95 317.447 12.95C321.597 12.95 322.697 15.55 322.697 17.9C322.697 20.2 320.897 21.5 319.047 22.35C316.347 23.65 311.797 24.7 308.597 25.1C308.397 26.05 308.247 27.45 308.247 28.5C308.247 31.45 309.397 33.75 312.297 33.75C316.047 33.75 318.797 31.4 320.397 27.45H321.147ZM316.947 14.35H316.797C314.397 14.35 310.897 16.65 308.947 23.5C311.447 23.25 315.047 22.35 316.747 21.6C318.647 20.65 319.597 19.35 319.597 17.5C319.597 15.55 318.647 14.35 316.947 14.35ZM351.86 27.45L351.96 29.8C349.46 33.8 345.26 35.7 341.61 35.7C337.61 35.7 335.51 33.15 335.51 28.85C335.51 23.85 337.86 18.4 341.96 15.15C343.81 13.7 345.91 12.95 348.16 12.95C352.31 12.95 353.41 15.55 353.41 17.9C353.41 20.2 351.61 21.5 349.76 22.35C347.06 23.65 342.51 24.7 339.31 25.1C339.11 26.05 338.96 27.45 338.96 28.5C338.96 31.45 340.11 33.75 343.01 33.75C346.76 33.75 349.51 31.4 351.11 27.45H351.86ZM347.66 14.35H347.51C345.11 14.35 341.61 16.65 339.66 23.5C342.16 23.25 345.76 22.35 347.46 21.6C349.36 20.65 350.31 19.35 350.31 17.5C350.31 15.55 349.36 14.35 347.66 14.35ZM377.329 28.7L378.229 29.7C376.229 33.65 373.179 35.75 370.679 35.75C368.029 35.75 368.229 33 369.379 29.9C370.779 26.15 372.379 21.8 373.629 18.25C374.229 16.6 374.029 15 372.229 15C367.279 15 362.379 23.05 360.329 28.65C359.679 30.45 358.979 32.15 358.079 35.1C356.929 35.2 355.829 35.35 354.779 35.5C357.129 29.3 359.879 19.9 360.629 16.2C360.729 15.55 360.679 15.35 360.179 15.35L357.079 15.4L357.529 14.15C359.829 13.9 362.429 13.6 364.679 12.95C363.779 15.9 362.829 19.35 362.029 21.95C364.879 17.65 368.729 12.95 373.729 12.95C374.729 12.95 375.629 13.25 376.129 13.7C377.579 15 376.979 17.85 376.329 19.6C374.979 23.35 373.079 28.15 371.929 31.95C371.629 32.9 371.729 33.55 372.329 33.55C373.829 33.55 376.029 31.25 377.329 28.7ZM385.118 3.1L385.618 1.9C386.918 1.85 391.318 1.55 393.268 1C392.518 2.8 390.018 10.65 387.118 20.75C389.768 17.15 393.918 12.95 398.518 12.95C399.768 12.95 400.418 13.35 400.968 13.85C402.168 15.05 401.618 17.9 401.068 19.55C399.468 24.25 397.718 28.8 396.768 31.85C396.468 32.7 396.418 33.6 397.168 33.6C398.718 33.6 400.868 31.15 402.068 28.65L403.018 29.7C400.968 33.7 398.218 35.75 395.618 35.75C392.918 35.75 393.168 32.9 394.268 29.8C395.918 24.9 397.618 20.4 398.418 17.9C398.768 16.7 398.918 14.85 396.968 14.85C394.818 14.85 391.718 16.85 388.618 21.15C386.768 23.75 385.768 26.15 384.918 28.75C384.318 30.65 383.718 32.45 382.968 35.15C382.268 35.15 380.918 35.3 379.718 35.45C380.918 31.55 383.218 24.6 385.518 16.35C387.768 8.45 388.518 5.7 388.968 3.9C389.068 3.35 388.968 3.1 388.268 3.1H385.118ZM427.519 28.65L428.469 29.6C427.219 32.2 424.669 35.7 421.269 35.7C418.819 35.7 418.819 33.05 419.519 30.6C419.669 30.1 419.869 29.25 420.019 28.65H419.919C417.769 31.9 413.919 35.7 409.719 35.7C406.919 35.7 405.769 33.55 405.769 30.65C405.769 25.15 409.269 17.8 414.269 14.65C416.169 13.45 417.869 12.95 419.619 12.95C421.619 12.95 423.319 13.75 423.869 15.3L424.419 13.55H427.519C425.669 18.95 423.169 27.25 422.219 31.8C422.019 32.75 422.069 33.6 422.769 33.6C424.269 33.6 426.319 31.2 427.519 28.65ZM409.169 30.5V30.55C409.169 32.05 409.719 33.6 411.269 33.6C413.819 33.6 416.619 31.4 419.219 27.25C420.569 25.1 422.819 19.7 422.869 17.8C422.869 15.3 421.369 14.45 419.769 14.45C417.869 14.45 416.119 15.2 414.169 17.45C411.269 20.9 409.169 26.3 409.169 30.5ZM452.525 28.7L453.425 29.7C451.425 33.65 448.375 35.75 445.875 35.75C443.225 35.75 443.425 33 444.575 29.9C445.975 26.15 447.575 21.8 448.825 18.25C449.425 16.6 449.225 15 447.425 15C442.475 15 437.575 23.05 435.525 28.65C434.875 30.45 434.175 32.15 433.275 35.1C432.125 35.2 431.025 35.35 429.975 35.5C432.325 29.3 435.075 19.9 435.825 16.2C435.925 15.55 435.875 15.35 435.375 15.35L432.275 15.4L432.725 14.15C435.025 13.9 437.625 13.6 439.875 12.95C438.975 15.9 438.025 19.35 437.225 21.95C440.075 17.65 443.925 12.95 448.925 12.95C449.925 12.95 450.825 13.25 451.325 13.7C452.775 15 452.175 17.85 451.525 19.6C450.175 23.35 448.275 28.15 447.125 31.95C446.825 32.9 446.925 33.55 447.525 33.55C449.025 33.55 451.225 31.25 452.525 28.7ZM473.054 27.55L473.104 29.8C471.654 32.5 468.054 35.7 463.304 35.7C458.954 35.7 456.704 33.3 456.704 28.7C456.704 23.75 459.154 18.35 463.304 15.25C465.054 14 467.054 12.95 469.604 12.95C473.504 12.95 474.954 15 474.954 17.25C474.954 19.15 473.854 20.15 472.754 20.15C472.204 20.15 471.704 19.9 471.504 19.5C471.354 19.25 471.354 18.7 471.504 18.35C471.704 17.8 471.954 17.2 471.954 16.7C471.954 15.3 471.204 14.3 469.204 14.3C466.804 14.3 464.504 15.95 462.504 19.6C461.054 22.15 460.154 25.55 460.154 28.7C460.154 31.95 461.754 33.9 464.404 33.9C467.954 33.9 470.654 31.35 472.354 27.55H473.054ZM486.422 3.55H486.472C487.622 3.55 488.172 4.35 488.122 5.6C488.072 7 486.972 8 485.772 8C484.772 8 484.022 7.3 484.072 6.05C484.122 4.5 485.372 3.55 486.422 3.55ZM478.572 15.45L479.022 14.15C481.222 13.9 484.222 13.6 486.322 12.95L486.472 13.15C484.922 16.6 481.472 27.65 480.372 31.9C480.122 32.9 480.072 33.6 480.722 33.6C482.372 33.6 484.722 30.9 485.772 28.65L486.672 29.65C484.672 33.6 481.772 35.7 479.072 35.7C476.522 35.7 476.822 33.2 477.722 30.3C478.972 26.4 481.072 20.2 482.222 16.15C482.422 15.5 482.322 15.3 481.722 15.35C481.072 15.35 479.772 15.35 478.572 15.45ZM511.119 28.7L512.019 29.7C510.019 33.65 506.969 35.75 504.469 35.75C501.819 35.75 502.019 33 503.169 29.9C504.569 26.15 506.169 21.8 507.419 18.25C508.019 16.6 507.819 15 506.019 15C501.069 15 496.169 23.05 494.119 28.65C493.469 30.45 492.769 32.15 491.869 35.1C490.719 35.2 489.619 35.35 488.569 35.5C490.919 29.3 493.669 19.9 494.419 16.2C494.519 15.55 494.469 15.35 493.969 15.35L490.869 15.4L491.319 14.15C493.619 13.9 496.219 13.6 498.469 12.95C497.569 15.9 496.619 19.35 495.819 21.95C498.669 17.65 502.519 12.95 507.519 12.95C508.519 12.95 509.419 13.25 509.919 13.7C511.369 15 510.769 17.85 510.119 19.6C508.769 23.35 506.869 28.15 505.719 31.95C505.419 32.9 505.519 33.55 506.119 33.55C507.619 33.55 509.819 31.25 511.119 28.7ZM526.206 12.95H526.256C528.056 12.95 529.506 13.35 530.706 14.55C531.556 13.95 532.306 13.55 532.956 13.25C533.656 13 534.256 12.85 534.856 12.85C535.856 12.85 536.556 13.6 536.556 14C536.556 14.55 535.556 15.5 534.956 15.85C533.956 15.2 532.556 15.05 531.406 15.55C531.906 16.3 532.156 17.55 532.156 18.7C532.156 23.75 528.656 28.75 523.156 28.75C521.856 28.75 520.306 28.3 519.456 27.7C518.256 28.1 517.456 28.85 517.456 29.9C517.456 30.75 518.206 31.55 519.856 32.1C521.706 32.7 524.306 33.5 526.556 34.2C529.256 34.95 531.306 36.5 531.306 39.6C531.306 45.3 525.356 47.5 520.256 47.5C516.156 47.5 510.406 45.4 510.406 40.5C510.406 37.45 513.156 35.5 516.156 35.5C516.606 35.5 517.106 35.6 517.406 35.7L517.806 36.65C515.256 36.7 513.256 37.95 513.256 40.3C513.256 43.25 516.756 45.85 521.456 45.85C525.956 45.85 528.306 43.5 528.306 40.9C528.306 39.2 527.256 37.9 525.306 37.3C523.156 36.6 520.906 35.8 518.956 35.2C516.806 34.6 514.806 33.4 514.806 30.9C514.806 29.05 516.256 27.6 518.506 26.9C517.556 25.9 517.156 24.55 517.156 22.95C517.156 18.2 520.956 12.95 526.206 12.95ZM526.256 14.3H526.206C524.906 14.3 523.706 14.85 522.706 16.2C521.156 18.15 520.256 21.15 520.256 23.65C520.256 26.4 521.756 27.4 523.256 27.4C524.506 27.4 525.606 26.85 526.506 25.85C528.156 23.95 529.206 20.7 529.206 18.05C529.206 15.55 528.056 14.3 526.256 14.3ZM558.906 12.95H558.956C563.256 12.95 565.556 15.65 565.556 20.25C565.556 25.05 563.106 30.9 559.256 33.7C557.156 35.15 555.256 35.7 552.856 35.7C549.906 35.7 546.156 34.4 546.156 28.75C546.156 23.7 548.806 17.65 553.056 14.75C554.706 13.65 556.706 12.95 558.906 12.95ZM558.706 14.3H558.656C556.656 14.3 554.856 15.4 553.206 17.65C551.056 20.5 549.406 25.65 549.406 29.25C549.406 33.05 551.306 34.3 553.256 34.3C554.956 34.3 556.506 33.6 557.956 32C560.556 28.95 562.356 23.1 562.356 19.1C562.356 16.15 561.206 14.3 558.706 14.3ZM578.512 3.55H578.562C579.712 3.55 580.262 4.35 580.212 5.6C580.162 7 579.062 8 577.862 8C576.862 8 576.112 7.3 576.162 6.05C576.212 4.5 577.462 3.55 578.512 3.55ZM570.662 15.45L571.112 14.15C573.312 13.9 576.312 13.6 578.412 12.95L578.562 13.15C577.012 16.6 573.562 27.65 572.462 31.9C572.212 32.9 572.162 33.6 572.812 33.6C574.462 33.6 576.812 30.9 577.862 28.65L578.762 29.65C576.762 33.6 573.862 35.7 571.162 35.7C568.612 35.7 568.912 33.2 569.812 30.3C571.062 26.4 573.162 20.2 574.312 16.15C574.512 15.5 574.412 15.3 573.812 15.35C573.162 15.35 571.862 15.35 570.662 15.45ZM585.708 3L586.208 1.75C588.908 1.7 591.908 1.4 593.758 0.949997C592.758 3.6 591.108 8.5 588.808 16.35C586.458 24.2 584.908 29.5 584.408 31.95C584.158 33.05 584.308 33.6 584.958 33.6C586.258 33.6 588.608 31.4 589.908 28.6L590.908 29.6C588.808 33.75 585.758 35.75 583.258 35.75C580.608 35.75 581.008 32.75 581.808 30.1C582.958 26.15 584.158 22.35 585.758 16.8C588.058 9.05 588.858 6 589.408 3.85C589.608 3.2 589.358 3 588.808 3H585.708ZM593.077 25.25L594.027 22.65C597.477 22.75 600.527 22.75 604.427 22.65L603.477 25.25C599.777 25.15 596.527 25.15 593.077 25.25ZM617.135 3.55H617.185C618.335 3.55 618.885 4.35 618.835 5.6C618.785 7 617.685 8 616.485 8C615.485 8 614.735 7.3 614.785 6.05C614.835 4.5 616.085 3.55 617.135 3.55ZM609.285 15.45L609.735 14.15C611.935 13.9 614.935 13.6 617.035 12.95L617.185 13.15C615.635 16.6 612.185 27.65 611.085 31.9C610.835 32.9 610.785 33.6 611.435 33.6C613.085 33.6 615.435 30.9 616.485 28.65L617.385 29.65C615.385 33.6 612.485 35.7 609.785 35.7C607.235 35.7 607.535 33.2 608.435 30.3C609.685 26.4 611.785 20.2 612.935 16.15C613.135 15.5 613.035 15.3 612.435 15.35C611.785 15.35 610.485 15.35 609.285 15.45ZM641.831 28.7L642.731 29.7C640.731 33.65 637.681 35.75 635.181 35.75C632.531 35.75 632.731 33 633.881 29.9C635.281 26.15 636.881 21.8 638.131 18.25C638.731 16.6 638.531 15 636.731 15C631.781 15 626.881 23.05 624.831 28.65C624.181 30.45 623.481 32.15 622.581 35.1C621.431 35.2 620.331 35.35 619.281 35.5C621.631 29.3 624.381 19.9 625.131 16.2C625.231 15.55 625.181 15.35 624.681 15.35L621.581 15.4L622.031 14.15C624.331 13.9 626.931 13.6 629.181 12.95C628.281 15.9 627.331 19.35 626.531 21.95C629.381 17.65 633.231 12.95 638.231 12.95C639.231 12.95 640.131 13.25 640.631 13.7C642.081 15 641.481 17.85 640.831 19.6C639.481 23.35 637.581 28.15 636.431 31.95C636.131 32.9 636.231 33.55 636.831 33.55C638.331 33.55 640.531 31.25 641.831 28.7ZM671.619 12.8L672.569 13.4C671.769 15.3 670.669 18.1 669.969 21L668.819 21.1C669.619 16.9 668.519 14.35 665.319 14.35C662.969 14.35 661.519 16.15 661.519 18.25C661.519 19.7 662.069 20.55 663.119 21.4C664.169 22.25 666.019 23.65 667.219 24.55C668.869 25.7 669.669 26.85 669.669 29.05C669.619 31.2 668.519 32.85 667.219 33.9C665.869 35.05 663.819 35.7 661.369 35.7C659.119 35.7 656.469 35 654.569 33.7C655.119 32.4 655.969 29.55 656.769 26.8L658.019 26.6C657.719 27.5 657.469 29.2 657.419 30.1C657.369 32.7 658.869 34.3 662.119 34.3C664.319 34.3 666.569 33.05 666.619 30.35C666.619 28.85 666.019 28.05 664.919 27.2C663.969 26.35 662.569 25.2 661.319 24.2C659.769 23.1 658.619 21.7 658.619 19.5C658.619 17.5 659.419 15.85 661.019 14.55C662.319 13.45 663.919 12.95 665.869 12.95C667.869 12.95 669.669 13.75 670.319 14.7L671.619 12.8ZM690.483 27.45L690.583 29.8C688.083 33.8 683.883 35.7 680.233 35.7C676.233 35.7 674.133 33.15 674.133 28.85C674.133 23.85 676.483 18.4 680.583 15.15C682.433 13.7 684.533 12.95 686.783 12.95C690.933 12.95 692.033 15.55 692.033 17.9C692.033 20.2 690.233 21.5 688.383 22.35C685.683 23.65 681.133 24.7 677.933 25.1C677.733 26.05 677.583 27.45 677.583 28.5C677.583 31.45 678.733 33.75 681.633 33.75C685.383 33.75 688.133 31.4 689.733 27.45H690.483ZM686.283 14.35H686.133C683.733 14.35 680.233 16.65 678.283 23.5C680.783 23.25 684.383 22.35 686.083 21.6C687.983 20.65 688.933 19.35 688.933 17.5C688.933 15.55 687.983 14.35 686.283 14.35ZM695.353 15.45L695.853 14.15C698.103 13.95 700.753 13.55 702.653 12.95C702.353 14.9 701.203 19.2 700.603 21.6H700.753C703.653 16.05 706.203 12.95 709.203 12.95C710.953 12.95 711.453 14.4 711.453 15.25C711.453 17.15 710.203 17.8 709.453 17.8C708.803 17.8 708.453 17.45 708.303 16.85C708.153 16.15 707.853 15.75 707.203 15.75C705.103 15.75 702.053 21.2 700.403 25.25C699.253 28.05 698.103 31.3 696.953 35.1C695.753 35.2 694.503 35.3 693.603 35.5C695.903 29.05 698.553 19.8 698.953 16.2C699.003 15.65 698.753 15.4 698.353 15.4C697.753 15.4 696.253 15.4 695.353 15.45ZM733.629 28.65L734.529 29.6C732.929 32.9 730.179 35.75 727.179 35.75C724.479 35.75 724.879 32.9 725.679 30.35C725.879 29.8 725.929 29.6 726.279 28.45C723.329 32.8 719.429 35.7 715.679 35.7C711.979 35.7 711.629 33.35 712.779 29.55C714.029 25.3 716.679 17.6 717.129 16.05C717.279 15.55 717.179 15.3 716.529 15.35L713.529 15.45L714.129 14.15C716.379 13.9 719.729 13.55 721.629 12.95C720.329 15.05 716.729 25.85 715.579 30.7C715.129 32.55 715.729 33.6 717.029 33.6C721.379 33.6 725.779 27.85 727.879 22.55C728.829 20.1 729.829 17.15 730.079 16.05C730.179 15.65 730.179 15.35 729.479 15.35L726.479 15.45L726.979 14.15C729.329 13.9 732.279 13.6 734.379 12.95C732.429 17.8 729.379 26.75 728.229 31.9C727.979 32.85 727.979 33.65 728.679 33.65C730.179 33.65 732.429 31.15 733.629 28.65ZM771.526 28.7L772.476 29.7C770.476 33.7 767.526 35.75 764.926 35.75C762.326 35.75 762.376 33.1 763.526 30.1C765.026 25.95 766.576 22.1 767.976 18.2C768.576 16.55 768.326 14.95 766.676 14.95C762.126 14.95 756.776 23.1 754.726 28.9C754.126 30.55 753.426 32.3 752.576 35.2C751.376 35.25 750.076 35.35 749.126 35.5C750.926 30.65 753.776 22.25 754.776 18.4C755.176 16.95 755.326 14.95 753.376 14.95C749.426 14.95 743.876 22.7 741.576 29.05C740.976 30.7 740.326 32.5 739.476 35.2C738.376 35.25 737.076 35.35 736.126 35.5C738.776 28.65 741.326 19.8 742.076 16.15C742.176 15.55 742.026 15.3 741.426 15.3L738.376 15.4L738.776 14.15C740.976 13.85 744.026 13.55 746.176 12.95C745.276 15.65 744.176 19.8 743.426 22C745.976 18.2 749.776 12.95 754.976 12.95C758.426 12.95 758.376 16.1 757.426 19.15C757.126 20.1 756.926 20.8 756.626 21.75C759.176 17.9 763.176 12.95 768.226 12.95C769.326 12.95 770.076 13.3 770.576 13.8C771.876 15.2 771.176 18.1 770.576 19.7C769.176 23.55 767.076 28.9 766.076 31.95C765.776 32.85 765.776 33.6 766.576 33.6C768.076 33.6 770.326 31.25 771.526 28.7ZM190.447 77.3L187.597 77.35L188.047 76.1C190.147 75.95 192.947 75.65 195.097 74.95C194.397 77.15 193.547 87.15 192.947 93.35C195.497 89.9 201.047 81.9 202.547 79.35C202.747 78.35 202.847 77.05 202.997 75.8C204.047 75.75 205.297 75.45 206.247 75.2C205.697 78.05 205.447 83 205.297 87.8C205.197 90 205.147 92.6 205.197 94.15C208.897 89.9 214.447 82.9 214.597 78C214.647 77.1 214.547 76.2 214.497 75.7C215.397 75.1 216.447 74.6 216.747 74.6C217.097 74.6 217.697 75.75 217.647 77.25C217.597 78.5 217.297 79.8 216.247 81.8C214.397 85.15 207.947 93.4 204.547 97.25C203.597 97.35 202.697 97.55 202.047 97.7C202.047 94.85 202.197 87.55 202.497 82.2C201.497 83.65 195.697 91.6 192.147 97.25C191.447 97.35 190.497 97.55 189.697 97.7C190.297 92.2 191.347 80.85 191.347 78.2C191.347 77.6 191.197 77.25 190.447 77.3ZM232.172 74.95H232.222C236.522 74.95 238.822 77.65 238.822 82.25C238.822 87.05 236.372 92.9 232.522 95.7C230.422 97.15 228.522 97.7 226.122 97.7C223.172 97.7 219.422 96.4 219.422 90.75C219.422 85.7 222.072 79.65 226.322 76.75C227.972 75.65 229.972 74.95 232.172 74.95ZM231.972 76.3H231.922C229.922 76.3 228.122 77.4 226.472 79.65C224.322 82.5 222.672 87.65 222.672 91.25C222.672 95.05 224.572 96.3 226.522 96.3C228.222 96.3 229.772 95.6 231.222 94C233.822 90.95 235.622 85.1 235.622 81.1C235.622 78.15 234.472 76.3 231.972 76.3ZM242.789 77.45L243.289 76.15C245.539 75.95 248.189 75.55 250.089 74.95C249.789 76.9 248.639 81.2 248.039 83.6H248.189C251.089 78.05 253.639 74.95 256.639 74.95C258.389 74.95 258.889 76.4 258.889 77.25C258.889 79.15 257.639 79.8 256.889 79.8C256.239 79.8 255.889 79.45 255.739 78.85C255.589 78.15 255.289 77.75 254.639 77.75C252.539 77.75 249.489 83.2 247.839 87.25C246.689 90.05 245.539 93.3 244.389 97.1C243.189 97.2 241.939 97.3 241.039 97.5C243.339 91.05 245.989 81.8 246.389 78.2C246.439 77.65 246.189 77.4 245.789 77.4C245.189 77.4 243.689 77.4 242.789 77.45ZM262.589 65.05L263.039 63.85C265.289 63.7 268.889 63.45 270.589 62.95C268.339 69.05 265.689 78.35 263.789 84.85C266.289 84.15 268.639 81.9 270.039 80.15C272.039 77.75 274.339 74.9 276.789 74.9C278.339 74.9 278.939 75.75 278.939 76.65C278.939 77.8 278.189 78.25 277.589 78.35C277.239 78.4 276.939 78.25 276.689 78.05C276.389 77.7 275.939 77.55 275.539 77.55C274.639 77.55 273.439 78.35 271.289 80.9C270.039 82.4 268.589 83.7 267.689 84.2C269.689 84.5 270.989 86.55 271.339 88.9C271.589 90.45 271.739 91.9 271.939 93.4C272.089 94.7 272.589 95.5 273.339 95.5C274.339 95.5 276.039 94.05 277.489 90.7L278.489 91.55C276.639 96.25 273.739 97.9 271.789 97.9C269.789 97.9 268.989 96.2 268.639 93.6C268.489 91.85 268.389 90.35 268.139 88.65C267.939 87.05 267.189 85.55 265.739 85.55C264.939 85.55 263.739 86.35 263.289 86.9C262.089 90.75 261.039 94.4 260.289 97.1C259.189 97.15 257.839 97.25 256.939 97.35C257.739 95 259.889 88.15 262.339 79.75C264.639 72.1 265.689 68.2 266.239 65.9C266.389 65.3 266.189 65.1 265.539 65.05H262.589ZM297.034 74.8L297.984 75.4C297.184 77.3 296.084 80.1 295.384 83L294.234 83.1C295.034 78.9 293.934 76.35 290.734 76.35C288.384 76.35 286.934 78.15 286.934 80.25C286.934 81.7 287.484 82.55 288.534 83.4C289.584 84.25 291.434 85.65 292.634 86.55C294.284 87.7 295.084 88.85 295.084 91.05C295.034 93.2 293.934 94.85 292.634 95.9C291.284 97.05 289.234 97.7 286.784 97.7C284.534 97.7 281.884 97 279.984 95.7C280.534 94.4 281.384 91.55 282.184 88.8L283.434 88.6C283.134 89.5 282.884 91.2 282.834 92.1C282.784 94.7 284.284 96.3 287.534 96.3C289.734 96.3 291.984 95.05 292.034 92.35C292.034 90.85 291.434 90.05 290.334 89.2C289.384 88.35 287.984 87.2 286.734 86.2C285.184 85.1 284.034 83.7 284.034 81.5C284.034 79.5 284.834 77.85 286.434 76.55C287.734 75.45 289.334 74.95 291.284 74.95C293.284 74.95 295.084 75.75 295.734 76.7L297.034 74.8ZM322.651 74.95H322.701C327.001 74.95 329.301 77.65 329.301 82.25C329.301 87.05 326.851 92.9 323.001 95.7C320.901 97.15 319.001 97.7 316.601 97.7C313.651 97.7 309.901 96.4 309.901 90.75C309.901 85.7 312.551 79.65 316.801 76.75C318.451 75.65 320.451 74.95 322.651 74.95ZM322.451 76.3H322.401C320.401 76.3 318.601 77.4 316.951 79.65C314.801 82.5 313.151 87.65 313.151 91.25C313.151 95.05 315.051 96.3 317.001 96.3C318.701 96.3 320.251 95.6 321.701 94C324.301 90.95 326.101 85.1 326.101 81.1C326.101 78.15 324.951 76.3 322.451 76.3ZM353.868 90.7L354.768 91.7C352.768 95.65 349.718 97.75 347.218 97.75C344.568 97.75 344.768 95 345.918 91.9C347.318 88.15 348.918 83.8 350.168 80.25C350.768 78.6 350.568 77 348.768 77C343.818 77 338.918 85.05 336.868 90.65C336.218 92.45 335.518 94.15 334.618 97.1C333.468 97.2 332.368 97.35 331.318 97.5C333.668 91.3 336.418 81.9 337.168 78.2C337.268 77.55 337.218 77.35 336.718 77.35L333.618 77.4L334.068 76.15C336.368 75.9 338.968 75.6 341.218 74.95C340.318 77.9 339.368 81.35 338.568 83.95C341.418 79.65 345.268 74.95 350.268 74.95C351.268 74.95 352.168 75.25 352.668 75.7C354.118 77 353.518 79.85 352.868 81.6C351.518 85.35 349.618 90.15 348.468 93.95C348.168 94.9 348.268 95.55 348.868 95.55C350.368 95.55 352.568 93.25 353.868 90.7ZM389.555 90.65L390.505 91.6C389.255 94.2 386.705 97.7 383.305 97.7C380.855 97.7 380.855 95.05 381.555 92.6C381.705 92.1 381.905 91.25 382.055 90.65H381.955C379.805 93.9 375.955 97.7 371.755 97.7C368.955 97.7 367.805 95.55 367.805 92.65C367.805 87.15 371.305 79.8 376.305 76.65C378.205 75.45 379.905 74.95 381.655 74.95C383.655 74.95 385.355 75.75 385.905 77.3L386.455 75.55H389.555C387.705 80.95 385.205 89.25 384.255 93.8C384.055 94.75 384.105 95.6 384.805 95.6C386.305 95.6 388.355 93.2 389.555 90.65ZM371.205 92.5V92.55C371.205 94.05 371.755 95.6 373.305 95.6C375.855 95.6 378.655 93.4 381.255 89.25C382.605 87.1 384.855 81.7 384.905 79.8C384.905 77.3 383.405 76.45 381.805 76.45C379.905 76.45 378.155 77.2 376.205 79.45C373.305 82.9 371.205 88.3 371.205 92.5ZM397.061 65L397.561 63.75C400.261 63.7 403.261 63.4 405.111 62.95C404.111 65.6 402.461 70.5 400.161 78.35C397.811 86.2 396.261 91.5 395.761 93.95C395.511 95.05 395.661 95.6 396.311 95.6C397.611 95.6 399.961 93.4 401.261 90.6L402.261 91.6C400.161 95.75 397.111 97.75 394.611 97.75C391.961 97.75 392.361 94.75 393.161 92.1C394.311 88.15 395.511 84.35 397.111 78.8C399.411 71.05 400.211 68 400.761 65.85C400.961 65.2 400.711 65 400.161 65H397.061ZM408.829 65L409.329 63.75C412.029 63.7 415.029 63.4 416.879 62.95C415.879 65.6 414.229 70.5 411.929 78.35C409.579 86.2 408.029 91.5 407.529 93.95C407.279 95.05 407.429 95.6 408.079 95.6C409.379 95.6 411.729 93.4 413.029 90.6L414.029 91.6C411.929 95.75 408.879 97.75 406.379 97.75C403.729 97.75 404.129 94.75 404.929 92.1C406.079 88.15 407.279 84.35 408.879 78.8C411.179 71.05 411.979 68 412.529 65.85C412.729 65.2 412.479 65 411.929 65H408.829ZM430.796 65.1L431.296 63.9C432.596 63.85 436.996 63.55 438.946 63C438.196 64.8 435.696 72.65 432.796 82.75C435.446 79.15 439.596 74.95 444.196 74.95C445.446 74.95 446.096 75.35 446.646 75.85C447.846 77.05 447.296 79.9 446.746 81.55C445.146 86.25 443.396 90.8 442.446 93.85C442.146 94.7 442.096 95.6 442.846 95.6C444.396 95.6 446.546 93.15 447.746 90.65L448.696 91.7C446.646 95.7 443.896 97.75 441.296 97.75C438.596 97.75 438.846 94.9 439.946 91.8C441.596 86.9 443.296 82.4 444.096 79.9C444.446 78.7 444.596 76.85 442.646 76.85C440.496 76.85 437.396 78.85 434.296 83.15C432.446 85.75 431.446 88.15 430.596 90.75C429.996 92.65 429.396 94.45 428.646 97.15C427.946 97.15 426.596 97.3 425.396 97.45C426.596 93.55 428.896 86.6 431.196 78.35C433.446 70.45 434.196 67.7 434.646 65.9C434.746 65.35 434.646 65.1 433.946 65.1H430.796ZM473.198 90.65L474.148 91.6C472.898 94.2 470.348 97.7 466.948 97.7C464.498 97.7 464.498 95.05 465.198 92.6C465.348 92.1 465.548 91.25 465.698 90.65H465.598C463.448 93.9 459.598 97.7 455.398 97.7C452.598 97.7 451.448 95.55 451.448 92.65C451.448 87.15 454.948 79.8 459.948 76.65C461.848 75.45 463.548 74.95 465.298 74.95C467.298 74.95 468.998 75.75 469.548 77.3L470.098 75.55H473.198C471.348 80.95 468.848 89.25 467.898 93.8C467.698 94.75 467.748 95.6 468.448 95.6C469.948 95.6 471.998 93.2 473.198 90.65ZM454.848 92.5V92.55C454.848 94.05 455.398 95.6 456.948 95.6C459.498 95.6 462.298 93.4 464.898 89.25C466.248 87.1 468.498 81.7 468.548 79.8C468.548 77.3 467.048 76.45 465.448 76.45C463.548 76.45 461.798 77.2 459.848 79.45C456.948 82.9 454.848 88.3 454.848 92.5ZM485.958 65.55H486.008C487.158 65.55 487.708 66.35 487.658 67.6C487.608 69 486.508 70 485.308 70C484.308 70 483.558 69.3 483.608 68.05C483.658 66.5 484.908 65.55 485.958 65.55ZM478.108 77.45L478.558 76.15C480.758 75.9 483.758 75.6 485.858 74.95L486.008 75.15C484.458 78.6 481.008 89.65 479.908 93.9C479.658 94.9 479.608 95.6 480.258 95.6C481.908 95.6 484.258 92.9 485.308 90.65L486.208 91.65C484.208 95.6 481.308 97.7 478.608 97.7C476.058 97.7 476.358 95.2 477.258 92.3C478.508 88.4 480.608 82.2 481.758 78.15C481.958 77.5 481.858 77.3 481.258 77.35C480.608 77.35 479.308 77.35 478.108 77.45ZM490.055 77.45L490.555 76.15C492.805 75.95 495.455 75.55 497.355 74.95C497.055 76.9 495.905 81.2 495.305 83.6H495.455C498.355 78.05 500.905 74.95 503.905 74.95C505.655 74.95 506.155 76.4 506.155 77.25C506.155 79.15 504.905 79.8 504.155 79.8C503.505 79.8 503.155 79.45 503.005 78.85C502.855 78.15 502.555 77.75 501.905 77.75C499.805 77.75 496.755 83.2 495.105 87.25C493.955 90.05 492.805 93.3 491.655 97.1C490.455 97.2 489.205 97.3 488.305 97.5C490.605 91.05 493.255 81.8 493.655 78.2C493.705 77.65 493.455 77.4 493.055 77.4C492.455 77.4 490.955 77.4 490.055 77.45ZM527.533 90.2L528.233 91.75C526.283 95.7 522.633 97.7 520.033 97.7C516.383 97.7 516.983 94.95 517.633 92.7C519.033 88 521.233 81.05 522.283 77.55L518.683 77.15L519.333 75.8H522.783C523.583 73.45 524.183 71.3 524.633 69.8C526.133 69.45 527.233 69.2 528.283 68.75C527.883 69.8 526.733 73.1 525.883 75.8H531.483L530.783 77.15L525.333 77.55C524.383 80.4 521.383 90.1 520.483 93.9C520.233 95 520.283 95.85 521.483 95.85C523.883 95.85 526.433 92.75 527.533 90.2ZM531.192 76C533.242 75.9 536.292 75.45 538.092 74.85C537.992 78.85 538.592 89 538.842 93.55C540.542 90.3 542.642 86.25 544.892 82.25C547.342 77.95 549.892 74.85 553.542 74.8L553.642 75.9C551.292 76.45 548.492 80.2 546.342 83.65C543.292 88.55 540.142 94.15 537.542 99.3C533.692 106.6 531.292 109.2 527.992 109.2C525.542 109.2 524.592 107.5 524.592 106.1C524.592 104.6 525.742 103.9 526.442 103.9C527.242 103.9 527.642 104.35 527.842 105C528.142 106.1 528.642 106.6 529.392 106.6C531.342 106.6 533.242 104.5 536.392 98C536.092 97.55 535.992 96.6 535.942 95.6C535.792 89.35 535.142 80.95 534.792 78.25C534.692 77.35 534.292 77.15 530.792 77.25L531.192 76ZM552.874 81.35C555.074 80.25 557.074 78.7 558.324 76.7C558.724 75.55 559.524 72.65 559.724 71.9C560.524 71.65 562.274 71.1 563.024 70.75L563.174 70.95C562.124 74.05 560.674 78.75 559.574 82.3C561.974 78.95 565.574 74.95 569.874 74.95C573.024 74.95 574.524 77.55 574.524 80.7C574.524 86.75 570.724 94.15 565.224 96.7C563.774 97.4 562.224 97.7 560.924 97.7C558.924 97.7 556.924 97.05 555.924 95.45C554.574 99.95 553.474 104.1 553.174 105.45C552.924 106.6 553.224 106.85 554.024 106.95L557.124 107.25L556.774 108.5H552.924C550.624 108.5 547.524 108.6 545.074 108.9L545.524 107.6L547.574 107.25C548.674 107.05 549.274 106.75 549.624 105.75C551.774 99.7 555.424 87.25 557.424 80.15C556.374 81 554.524 82.05 553.474 82.4C553.274 82 553.074 81.65 552.874 81.35ZM568.574 76.85H568.524C565.724 76.85 562.824 80.05 560.724 83.3C558.924 85.9 557.174 90.25 557.174 92.55C557.174 95.05 558.974 96.25 561.024 96.25C562.874 96.25 564.774 95.25 566.524 93.15C569.024 90 571.124 84.8 571.124 80.55C571.124 78.6 570.274 76.85 568.574 76.85ZM593.877 89.45L593.977 91.8C591.477 95.8 587.277 97.7 583.627 97.7C579.627 97.7 577.527 95.15 577.527 90.85C577.527 85.85 579.877 80.4 583.977 77.15C585.827 75.7 587.927 74.95 590.177 74.95C594.327 74.95 595.427 77.55 595.427 79.9C595.427 82.2 593.627 83.5 591.777 84.35C589.077 85.65 584.527 86.7 581.327 87.1C581.127 88.05 580.977 89.45 580.977 90.5C580.977 93.45 582.127 95.75 585.027 95.75C588.777 95.75 591.527 93.4 593.127 89.45H593.877ZM589.677 76.35H589.527C587.127 76.35 583.627 78.65 581.677 85.5C584.177 85.25 587.777 84.35 589.477 83.6C591.377 82.65 592.327 81.35 592.327 79.5C592.327 77.55 591.377 76.35 589.677 76.35ZM613.636 74.8L614.586 75.4C613.786 77.3 612.686 80.1 611.986 83L610.836 83.1C611.636 78.9 610.536 76.35 607.336 76.35C604.986 76.35 603.536 78.15 603.536 80.25C603.536 81.7 604.086 82.55 605.136 83.4C606.186 84.25 608.036 85.65 609.236 86.55C610.886 87.7 611.686 88.85 611.686 91.05C611.636 93.2 610.536 94.85 609.236 95.9C607.886 97.05 605.836 97.7 603.386 97.7C601.136 97.7 598.486 97 596.586 95.7C597.136 94.4 597.986 91.55 598.786 88.8L600.036 88.6C599.736 89.5 599.486 91.2 599.436 92.1C599.386 94.7 600.886 96.3 604.136 96.3C606.336 96.3 608.586 95.05 608.636 92.35C608.636 90.85 608.036 90.05 606.936 89.2C605.986 88.35 604.586 87.2 603.336 86.2C601.786 85.1 600.636 83.7 600.636 81.5C600.636 79.5 601.436 77.85 603.036 76.55C604.336 75.45 605.936 74.95 607.886 74.95C609.886 74.95 611.686 75.75 612.336 76.7L613.636 74.8Z" fill="black"/>
<rect x="351.5" y="157" width="96" height="10" fill="url(#paint0_linear_434_1853)"/>
<defs>
<linearGradient id="paint0_linear_434_1853" x1="351.5" y1="160.333" x2="468.371" y2="156.433" gradientUnits="userSpaceOnUse">
<stop stop-color="#843802"/>
<stop offset="0.294792" stop-color="#DDBC84"/>
<stop offset="0.51875" stop-color="#FFDE85"/>
<stop offset="0.933766" stop-color="#843802"/>
</linearGradient>
</defs>
</svg>
