<svg width="831" height="167" viewBox="0 0 831 167" fill="none" xmlns="http://www.w3.org/2000/svg">
<path d="M75.0072 2.65L75.3072 2.8C75.1572 5.8 75.2572 13.85 75.4572 20.65C75.6072 27.05 75.8072 30.55 76.0572 32.4C76.2072 33.2 76.5072 33.45 77.3072 33.55L80.0072 33.85L79.8072 35.15C78.7572 35.15 76.3072 35 74.1072 35C72.0572 35 70.0572 35.1 68.4072 35.15L68.7572 33.85C71.9072 33.6 72.2072 33.4 72.2072 31.9C72.2572 28.1 72.1572 24.95 72.1572 22C67.0072 22 63.8572 22.3 62.1572 22.6C59.5072 26.75 57.7072 30 57.1572 31.2C56.1572 33.25 56.7072 33.6 60.5072 33.85L60.2072 35.15C58.7072 35.15 56.2072 35 54.7072 35C52.2572 35 50.4572 35.15 49.3072 35.15L49.6072 33.85C52.4572 33.6 53.1572 33.3 54.9572 30.5C58.0572 25.75 68.9572 9.2 71.0072 5.8C71.4072 5.15 71.7572 4.5 71.9072 4.05L72.0572 3.65C72.9572 3.65 74.3072 3.2 75.0072 2.65ZM72.1072 20.3C72.1072 16.85 72.0072 11.8 72.0072 7.05C69.9572 10.2 67.8072 13.45 63.3572 20.7C65.2572 20.5 67.8072 20.35 72.1072 20.3ZM115.164 28.75L116.114 29.75C114.264 33.4 111.664 35.75 108.864 35.75C106.264 35.75 106.664 32.7 107.414 30.2C107.564 29.65 107.714 29.1 107.864 28.55C105.614 31.95 101.914 35.7 97.2639 35.7C94.3139 35.7 92.8139 33.45 92.8139 30.3C92.8139 24.95 95.8639 18.75 100.364 15.3C102.164 13.95 104.364 12.95 106.914 12.95C109.164 12.95 110.814 13.65 111.614 15.15C113.614 8.85 114.464 5.7 114.814 4.1C115.014 3.35 114.914 3.15 114.314 3.15C113.514 3.15 112.514 3.1 111.014 3.1L111.514 1.85C113.964 1.8 117.664 1.4 119.164 0.949997C117.914 4.15 115.214 12.6 112.464 22.25C111.114 26.95 110.414 29.75 110.014 31.6C109.814 32.45 109.614 33.65 110.414 33.65C111.914 33.65 114.064 31.15 115.164 28.75ZM96.2639 30.15V30.2C96.2639 32.1 97.0639 33.7 98.7639 33.7C101.114 33.7 103.764 31.85 106.414 27.95C108.114 25.5 110.414 20.3 110.414 17.8C110.414 16.2 109.614 14.4 107.114 14.4C105.164 14.4 103.464 15.15 101.564 17.1C98.6139 20.25 96.2639 25.45 96.2639 30.15ZM140.345 28.65L141.295 29.6C140.045 32.2 137.495 35.7 134.095 35.7C131.645 35.7 131.645 33.05 132.345 30.6C132.495 30.1 132.695 29.25 132.845 28.65H132.745C130.595 31.9 126.745 35.7 122.545 35.7C119.745 35.7 118.595 33.55 118.595 30.65C118.595 25.15 122.095 17.8 127.095 14.65C128.995 13.45 130.695 12.95 132.445 12.95C134.445 12.95 136.145 13.75 136.695 15.3L137.245 13.55H140.345C138.495 18.95 135.995 27.25 135.045 31.8C134.845 32.75 134.895 33.6 135.595 33.6C137.095 33.6 139.145 31.2 140.345 28.65ZM121.995 30.5V30.55C121.995 32.05 122.545 33.6 124.095 33.6C126.645 33.6 129.445 31.4 132.045 27.25C133.395 25.1 135.645 19.7 135.695 17.8C135.695 15.3 134.195 14.45 132.595 14.45C130.695 14.45 128.945 15.2 126.995 17.45C124.095 20.9 121.995 26.3 121.995 30.5ZM153.106 3.55H153.156C154.306 3.55 154.856 4.35 154.806 5.6C154.756 7 153.656 8 152.456 8C151.456 8 150.706 7.3 150.756 6.05C150.806 4.5 152.056 3.55 153.106 3.55ZM145.256 15.45L145.706 14.15C147.906 13.9 150.906 13.6 153.006 12.95L153.156 13.15C151.606 16.6 148.156 27.65 147.056 31.9C146.806 32.9 146.756 33.6 147.406 33.6C149.056 33.6 151.406 30.9 152.456 28.65L153.356 29.65C151.356 33.6 148.456 35.7 145.756 35.7C143.206 35.7 143.506 33.2 144.406 30.3C145.656 26.4 147.756 20.2 148.906 16.15C149.106 15.5 149.006 15.3 148.406 15.35C147.756 15.35 146.456 15.35 145.256 15.45ZM160.302 3L160.802 1.75C163.502 1.7 166.502 1.4 168.352 0.949997C167.352 3.6 165.702 8.5 163.402 16.35C161.052 24.2 159.502 29.5 159.002 31.95C158.752 33.05 158.902 33.6 159.552 33.6C160.852 33.6 163.202 31.4 164.502 28.6L165.502 29.6C163.402 33.75 160.352 35.75 157.852 35.75C155.202 35.75 155.602 32.75 156.402 30.1C157.552 26.15 158.752 22.35 160.352 16.8C162.652 9.05 163.452 6 164.002 3.85C164.202 3.2 163.952 3 163.402 3H160.302ZM167.871 14C169.921 13.9 172.971 13.45 174.771 12.85C174.671 16.85 175.271 27 175.521 31.55C177.221 28.3 179.321 24.25 181.571 20.25C184.021 15.95 186.571 12.85 190.221 12.8L190.321 13.9C187.971 14.45 185.171 18.2 183.021 21.65C179.971 26.55 176.821 32.15 174.221 37.3C170.371 44.6 167.971 47.2 164.671 47.2C162.221 47.2 161.271 45.5 161.271 44.1C161.271 42.6 162.421 41.9 163.121 41.9C163.921 41.9 164.321 42.35 164.521 43C164.821 44.1 165.321 44.6 166.071 44.6C168.021 44.6 169.921 42.5 173.071 36C172.771 35.55 172.671 34.6 172.621 33.6C172.471 27.35 171.821 18.95 171.471 16.25C171.371 15.35 170.971 15.15 167.471 15.25L167.871 14ZM214.914 12.8L215.864 13.4C215.064 15.3 213.964 18.1 213.264 21L212.114 21.1C212.914 16.9 211.814 14.35 208.614 14.35C206.264 14.35 204.814 16.15 204.814 18.25C204.814 19.7 205.364 20.55 206.414 21.4C207.464 22.25 209.314 23.65 210.514 24.55C212.164 25.7 212.964 26.85 212.964 29.05C212.914 31.2 211.814 32.85 210.514 33.9C209.164 35.05 207.114 35.7 204.664 35.7C202.414 35.7 199.764 35 197.864 33.7C198.414 32.4 199.264 29.55 200.064 26.8L201.314 26.6C201.014 27.5 200.764 29.2 200.714 30.1C200.664 32.7 202.164 34.3 205.414 34.3C207.614 34.3 209.864 33.05 209.914 30.35C209.914 28.85 209.314 28.05 208.214 27.2C207.264 26.35 205.864 25.2 204.614 24.2C203.064 23.1 201.914 21.7 201.914 19.5C201.914 17.5 202.714 15.85 204.314 14.55C205.614 13.45 207.214 12.95 209.164 12.95C211.164 12.95 212.964 13.75 213.614 14.7L214.914 12.8ZM233.778 27.45L233.878 29.8C231.378 33.8 227.178 35.7 223.528 35.7C219.528 35.7 217.428 33.15 217.428 28.85C217.428 23.85 219.778 18.4 223.878 15.15C225.728 13.7 227.828 12.95 230.078 12.95C234.228 12.95 235.328 15.55 235.328 17.9C235.328 20.2 233.528 21.5 231.678 22.35C228.978 23.65 224.428 24.7 221.228 25.1C221.028 26.05 220.878 27.45 220.878 28.5C220.878 31.45 222.028 33.75 224.928 33.75C228.678 33.75 231.428 31.4 233.028 27.45H233.778ZM229.578 14.35H229.428C227.028 14.35 223.528 16.65 221.578 23.5C224.078 23.25 227.678 22.35 229.378 21.6C231.278 20.65 232.228 19.35 232.228 17.5C232.228 15.55 231.278 14.35 229.578 14.35ZM238.647 15.45L239.147 14.15C241.397 13.95 244.047 13.55 245.947 12.95C245.647 14.9 244.497 19.2 243.897 21.6H244.047C246.947 16.05 249.497 12.95 252.497 12.95C254.247 12.95 254.747 14.4 254.747 15.25C254.747 17.15 253.497 17.8 252.747 17.8C252.097 17.8 251.747 17.45 251.597 16.85C251.447 16.15 251.147 15.75 250.497 15.75C248.397 15.75 245.347 21.2 243.697 25.25C242.547 28.05 241.397 31.3 240.247 35.1C239.047 35.2 237.797 35.3 236.897 35.5C239.197 29.05 241.847 19.8 242.247 16.2C242.297 15.65 242.047 15.4 241.647 15.4C241.047 15.4 239.547 15.4 238.647 15.45ZM276.924 28.65L277.824 29.6C276.224 32.9 273.474 35.75 270.474 35.75C267.774 35.75 268.174 32.9 268.974 30.35C269.174 29.8 269.224 29.6 269.574 28.45C266.624 32.8 262.724 35.7 258.974 35.7C255.274 35.7 254.924 33.35 256.074 29.55C257.324 25.3 259.974 17.6 260.424 16.05C260.574 15.55 260.474 15.3 259.824 15.35L256.824 15.45L257.424 14.15C259.674 13.9 263.024 13.55 264.924 12.95C263.624 15.05 260.024 25.85 258.874 30.7C258.424 32.55 259.024 33.6 260.324 33.6C264.674 33.6 269.074 27.85 271.174 22.55C272.124 20.1 273.124 17.15 273.374 16.05C273.474 15.65 273.474 15.35 272.774 15.35L269.774 15.45L270.274 14.15C272.624 13.9 275.574 13.6 277.674 12.95C275.724 17.8 272.674 26.75 271.524 31.9C271.274 32.85 271.274 33.65 271.974 33.65C273.474 33.65 275.724 31.15 276.924 28.65ZM314.821 28.7L315.771 29.7C313.771 33.7 310.821 35.75 308.221 35.75C305.621 35.75 305.671 33.1 306.821 30.1C308.321 25.95 309.871 22.1 311.271 18.2C311.871 16.55 311.621 14.95 309.971 14.95C305.421 14.95 300.071 23.1 298.021 28.9C297.421 30.55 296.721 32.3 295.871 35.2C294.671 35.25 293.371 35.35 292.421 35.5C294.221 30.65 297.071 22.25 298.071 18.4C298.471 16.95 298.621 14.95 296.671 14.95C292.721 14.95 287.171 22.7 284.871 29.05C284.271 30.7 283.621 32.5 282.771 35.2C281.671 35.25 280.371 35.35 279.421 35.5C282.071 28.65 284.621 19.8 285.371 16.15C285.471 15.55 285.321 15.3 284.721 15.3L281.671 15.4L282.071 14.15C284.271 13.85 287.321 13.55 289.471 12.95C288.571 15.65 287.471 19.8 286.721 22C289.271 18.2 293.071 12.95 298.271 12.95C301.721 12.95 301.671 16.1 300.721 19.15C300.421 20.1 300.221 20.8 299.921 21.75C302.471 17.9 306.471 12.95 311.521 12.95C312.621 12.95 313.371 13.3 313.871 13.8C315.171 15.2 314.471 18.1 313.871 19.7C312.471 23.55 310.371 28.9 309.371 31.95C309.071 32.85 309.071 33.6 309.871 33.6C311.371 33.6 313.621 31.25 314.821 28.7ZM339.651 28.2L340.351 29.75C338.401 33.7 334.751 35.7 332.151 35.7C328.501 35.7 329.101 32.95 329.751 30.7C331.151 26 333.351 19.05 334.401 15.55L330.801 15.15L331.451 13.8H334.901C335.701 11.45 336.301 9.3 336.751 7.8C338.251 7.45 339.351 7.2 340.401 6.75C340.001 7.8 338.851 11.1 338.001 13.8H343.601L342.901 15.15L337.451 15.55C336.501 18.4 333.501 28.1 332.601 31.9C332.351 33 332.401 33.85 333.601 33.85C336.001 33.85 338.551 30.75 339.651 28.2ZM347.212 3.1L347.712 1.9C349.012 1.85 353.412 1.55 355.362 1C354.612 2.8 352.112 10.65 349.212 20.75C351.862 17.15 356.012 12.95 360.612 12.95C361.862 12.95 362.512 13.35 363.062 13.85C364.262 15.05 363.712 17.9 363.162 19.55C361.562 24.25 359.812 28.8 358.862 31.85C358.562 32.7 358.512 33.6 359.262 33.6C360.812 33.6 362.962 31.15 364.162 28.65L365.112 29.7C363.062 33.7 360.312 35.75 357.712 35.75C355.012 35.75 355.262 32.9 356.362 29.8C358.012 24.9 359.712 20.4 360.512 17.9C360.862 16.7 361.012 14.85 359.062 14.85C356.912 14.85 353.812 16.85 350.712 21.15C348.862 23.75 347.862 26.15 347.012 28.75C346.412 30.65 345.812 32.45 345.062 35.15C344.362 35.15 343.012 35.3 341.812 35.45C343.012 31.55 345.312 24.6 347.612 16.35C349.862 8.45 350.612 5.7 351.062 3.9C351.162 3.35 351.062 3.1 350.362 3.1H347.212ZM389.613 28.65L390.563 29.6C389.313 32.2 386.763 35.7 383.363 35.7C380.913 35.7 380.913 33.05 381.613 30.6C381.763 30.1 381.963 29.25 382.113 28.65H382.013C379.863 31.9 376.013 35.7 371.813 35.7C369.013 35.7 367.863 33.55 367.863 30.65C367.863 25.15 371.363 17.8 376.363 14.65C378.263 13.45 379.963 12.95 381.713 12.95C383.713 12.95 385.413 13.75 385.963 15.3L386.513 13.55H389.613C387.763 18.95 385.263 27.25 384.313 31.8C384.113 32.75 384.163 33.6 384.863 33.6C386.363 33.6 388.413 31.2 389.613 28.65ZM371.263 30.5V30.55C371.263 32.05 371.813 33.6 373.363 33.6C375.913 33.6 378.713 31.4 381.313 27.25C382.663 25.1 384.913 19.7 384.963 17.8C384.963 15.3 383.463 14.45 381.863 14.45C379.963 14.45 378.213 15.2 376.263 17.45C373.363 20.9 371.263 26.3 371.263 30.5ZM403.519 28.2L404.219 29.75C402.269 33.7 398.619 35.7 396.019 35.7C392.369 35.7 392.969 32.95 393.619 30.7C395.019 26 397.219 19.05 398.269 15.55L394.669 15.15L395.319 13.8H398.769C399.569 11.45 400.169 9.3 400.619 7.8C402.119 7.45 403.219 7.2 404.269 6.75C403.869 7.8 402.719 11.1 401.869 13.8H407.469L406.769 15.15L401.319 15.55C400.369 18.4 397.369 28.1 396.469 31.9C396.219 33 396.269 33.85 397.469 33.85C399.869 33.85 402.419 30.75 403.519 28.2ZM418.872 15.45L419.372 14.15C421.622 13.95 424.272 13.55 426.172 12.95C425.872 14.9 424.722 19.2 424.122 21.6H424.272C427.172 16.05 429.722 12.95 432.722 12.95C434.472 12.95 434.972 14.4 434.972 15.25C434.972 17.15 433.722 17.8 432.972 17.8C432.322 17.8 431.972 17.45 431.822 16.85C431.672 16.15 431.372 15.75 430.722 15.75C428.622 15.75 425.572 21.2 423.922 25.25C422.772 28.05 421.622 31.3 420.472 35.1C419.272 35.2 418.022 35.3 417.122 35.5C419.422 29.05 422.072 19.8 422.472 16.2C422.522 15.65 422.272 15.4 421.872 15.4C421.272 15.4 419.772 15.4 418.872 15.45ZM451.112 27.45L451.212 29.8C448.712 33.8 444.512 35.7 440.862 35.7C436.862 35.7 434.762 33.15 434.762 28.85C434.762 23.85 437.112 18.4 441.212 15.15C443.062 13.7 445.162 12.95 447.412 12.95C451.562 12.95 452.662 15.55 452.662 17.9C452.662 20.2 450.862 21.5 449.012 22.35C446.312 23.65 441.762 24.7 438.562 25.1C438.362 26.05 438.212 27.45 438.212 28.5C438.212 31.45 439.362 33.75 442.262 33.75C446.012 33.75 448.762 31.4 450.362 27.45H451.112ZM446.912 14.35H446.762C444.362 14.35 440.862 16.65 438.912 23.5C441.412 23.25 445.012 22.35 446.712 21.6C448.612 20.65 449.562 19.35 449.562 17.5C449.562 15.55 448.612 14.35 446.912 14.35ZM477.224 28.75L478.174 29.75C476.324 33.4 473.724 35.75 470.924 35.75C468.324 35.75 468.724 32.7 469.474 30.2C469.624 29.65 469.774 29.1 469.924 28.55C467.674 31.95 463.974 35.7 459.324 35.7C456.374 35.7 454.874 33.45 454.874 30.3C454.874 24.95 457.924 18.75 462.424 15.3C464.224 13.95 466.424 12.95 468.974 12.95C471.224 12.95 472.874 13.65 473.674 15.15C475.674 8.85 476.524 5.7 476.874 4.1C477.074 3.35 476.974 3.15 476.374 3.15C475.574 3.15 474.574 3.1 473.074 3.1L473.574 1.85C476.024 1.8 479.724 1.4 481.224 0.949997C479.974 4.15 477.274 12.6 474.524 22.25C473.174 26.95 472.474 29.75 472.074 31.6C471.874 32.45 471.674 33.65 472.474 33.65C473.974 33.65 476.124 31.15 477.224 28.75ZM458.324 30.15V30.2C458.324 32.1 459.124 33.7 460.824 33.7C463.174 33.7 465.824 31.85 468.474 27.95C470.174 25.5 472.474 20.3 472.474 17.8C472.474 16.2 471.674 14.4 469.174 14.4C467.224 14.4 465.524 15.15 463.624 17.1C460.674 20.25 458.324 25.45 458.324 30.15ZM502.413 28.65L503.313 29.6C501.713 32.9 498.963 35.75 495.963 35.75C493.263 35.75 493.663 32.9 494.463 30.35C494.663 29.8 494.713 29.6 495.063 28.45C492.113 32.8 488.213 35.7 484.463 35.7C480.763 35.7 480.413 33.35 481.563 29.55C482.813 25.3 485.463 17.6 485.913 16.05C486.063 15.55 485.963 15.3 485.313 15.35L482.313 15.45L482.913 14.15C485.163 13.9 488.513 13.55 490.413 12.95C489.113 15.05 485.513 25.85 484.363 30.7C483.913 32.55 484.513 33.6 485.813 33.6C490.163 33.6 494.563 27.85 496.663 22.55C497.613 20.1 498.613 17.15 498.863 16.05C498.963 15.65 498.963 15.35 498.263 15.35L495.263 15.45L495.763 14.15C498.113 13.9 501.063 13.6 503.163 12.95C501.213 17.8 498.163 26.75 497.013 31.9C496.763 32.85 496.763 33.65 497.463 33.65C498.963 33.65 501.213 31.15 502.413 28.65ZM522.55 27.55L522.6 29.8C521.15 32.5 517.55 35.7 512.8 35.7C508.45 35.7 506.2 33.3 506.2 28.7C506.2 23.75 508.65 18.35 512.8 15.25C514.55 14 516.55 12.95 519.1 12.95C523 12.95 524.45 15 524.45 17.25C524.45 19.15 523.35 20.15 522.25 20.15C521.7 20.15 521.2 19.9 521 19.5C520.85 19.25 520.85 18.7 521 18.35C521.2 17.8 521.45 17.2 521.45 16.7C521.45 15.3 520.7 14.3 518.7 14.3C516.3 14.3 514 15.95 512 19.6C510.55 22.15 509.65 25.55 509.65 28.7C509.65 31.95 511.25 33.9 513.9 33.9C517.45 33.9 520.15 31.35 521.85 27.55H522.55ZM542.909 27.45L543.009 29.8C540.509 33.8 536.309 35.7 532.659 35.7C528.659 35.7 526.559 33.15 526.559 28.85C526.559 23.85 528.909 18.4 533.009 15.15C534.859 13.7 536.959 12.95 539.209 12.95C543.359 12.95 544.459 15.55 544.459 17.9C544.459 20.2 542.659 21.5 540.809 22.35C538.109 23.65 533.559 24.7 530.359 25.1C530.159 26.05 530.009 27.45 530.009 28.5C530.009 31.45 531.159 33.75 534.059 33.75C537.809 33.75 540.559 31.4 542.159 27.45H542.909ZM538.709 14.35H538.559C536.159 14.35 532.659 16.65 530.709 23.5C533.209 23.25 536.809 22.35 538.509 21.6C540.409 20.65 541.359 19.35 541.359 17.5C541.359 15.55 540.409 14.35 538.709 14.35ZM562.668 12.8L563.618 13.4C562.818 15.3 561.718 18.1 561.018 21L559.868 21.1C560.668 16.9 559.568 14.35 556.368 14.35C554.018 14.35 552.568 16.15 552.568 18.25C552.568 19.7 553.118 20.55 554.168 21.4C555.218 22.25 557.068 23.65 558.268 24.55C559.918 25.7 560.718 26.85 560.718 29.05C560.668 31.2 559.568 32.85 558.268 33.9C556.918 35.05 554.868 35.7 552.418 35.7C550.168 35.7 547.518 35 545.618 33.7C546.168 32.4 547.018 29.55 547.818 26.8L549.068 26.6C548.768 27.5 548.518 29.2 548.468 30.1C548.418 32.7 549.918 34.3 553.168 34.3C555.368 34.3 557.618 33.05 557.668 30.35C557.668 28.85 557.068 28.05 555.968 27.2C555.018 26.35 553.618 25.2 552.368 24.2C550.818 23.1 549.668 21.7 549.668 19.5C549.668 17.5 550.468 15.85 552.068 14.55C553.368 13.45 554.968 12.95 556.918 12.95C558.918 12.95 560.718 13.75 561.368 14.7L562.668 12.8ZM579.585 3.1L580.085 1.9C581.385 1.85 585.785 1.55 587.735 1C586.985 2.8 584.485 10.65 581.585 20.75C584.235 17.15 588.385 12.95 592.985 12.95C594.235 12.95 594.885 13.35 595.435 13.85C596.635 15.05 596.085 17.9 595.535 19.55C593.935 24.25 592.185 28.8 591.235 31.85C590.935 32.7 590.885 33.6 591.635 33.6C593.185 33.6 595.335 31.15 596.535 28.65L597.485 29.7C595.435 33.7 592.685 35.75 590.085 35.75C587.385 35.75 587.635 32.9 588.735 29.8C590.385 24.9 592.085 20.4 592.885 17.9C593.235 16.7 593.385 14.85 591.435 14.85C589.285 14.85 586.185 16.85 583.085 21.15C581.235 23.75 580.235 26.15 579.385 28.75C578.785 30.65 578.185 32.45 577.435 35.15C576.735 35.15 575.385 35.3 574.185 35.45C575.385 31.55 577.685 24.6 579.985 16.35C582.235 8.45 582.985 5.7 583.435 3.9C583.535 3.35 583.435 3.1 582.735 3.1H579.585ZM621.986 28.65L622.936 29.6C621.686 32.2 619.136 35.7 615.736 35.7C613.286 35.7 613.286 33.05 613.986 30.6C614.136 30.1 614.336 29.25 614.486 28.65H614.386C612.236 31.9 608.386 35.7 604.186 35.7C601.386 35.7 600.236 33.55 600.236 30.65C600.236 25.15 603.736 17.8 608.736 14.65C610.636 13.45 612.336 12.95 614.086 12.95C616.086 12.95 617.786 13.75 618.336 15.3L618.886 13.55H621.986C620.136 18.95 617.636 27.25 616.686 31.8C616.486 32.75 616.536 33.6 617.236 33.6C618.736 33.6 620.786 31.2 621.986 28.65ZM603.636 30.5V30.55C603.636 32.05 604.186 33.6 605.736 33.6C608.286 33.6 611.086 31.4 613.686 27.25C615.036 25.1 617.286 19.7 617.336 17.8C617.336 15.3 615.836 14.45 614.236 14.45C612.336 14.45 610.586 15.2 608.636 17.45C605.736 20.9 603.636 26.3 603.636 30.5ZM634.746 3.55H634.796C635.946 3.55 636.496 4.35 636.446 5.6C636.396 7 635.296 8 634.096 8C633.096 8 632.346 7.3 632.396 6.05C632.446 4.5 633.696 3.55 634.746 3.55ZM626.896 15.45L627.346 14.15C629.546 13.9 632.546 13.6 634.646 12.95L634.796 13.15C633.246 16.6 629.796 27.65 628.696 31.9C628.446 32.9 628.396 33.6 629.046 33.6C630.696 33.6 633.046 30.9 634.096 28.65L634.996 29.65C632.996 33.6 630.096 35.7 627.396 35.7C624.846 35.7 625.146 33.2 626.046 30.3C627.296 26.4 629.396 20.2 630.546 16.15C630.746 15.5 630.646 15.3 630.046 15.35C629.396 15.35 628.096 15.35 626.896 15.45ZM638.843 15.45L639.343 14.15C641.593 13.95 644.243 13.55 646.143 12.95C645.843 14.9 644.693 19.2 644.093 21.6H644.243C647.143 16.05 649.693 12.95 652.693 12.95C654.443 12.95 654.943 14.4 654.943 15.25C654.943 17.15 653.693 17.8 652.943 17.8C652.293 17.8 651.943 17.45 651.793 16.85C651.643 16.15 651.343 15.75 650.693 15.75C648.593 15.75 645.543 21.2 643.893 25.25C642.743 28.05 641.593 31.3 640.443 35.1C639.243 35.2 637.993 35.3 637.093 35.5C639.393 29.05 642.043 19.8 642.443 16.2C642.493 15.65 642.243 15.4 641.843 15.4C641.243 15.4 639.743 15.4 638.843 15.45ZM667.521 13.8H671.171C672.371 9.3 673.621 5.9 676.021 3.5C677.971 1.5 679.821 0.849999 681.721 0.849999C684.171 0.849999 685.771 2.25 685.771 4.15C685.771 5.7 684.771 6.35 683.871 6.35C683.071 6.35 682.521 5.9 682.671 5.2C682.721 4.8 682.821 4.35 682.821 4.05C682.821 3.1 682.471 2.3 680.921 2.3C679.121 2.3 677.771 3.9 676.621 6.7C675.821 8.6 675.071 11.25 674.371 13.8H679.421L678.871 15.2L673.921 15.55C672.021 23.2 669.571 32.7 667.921 37.45C666.521 41.55 665.021 44.05 661.871 46C660.421 46.9 659.071 47.15 657.671 47.15C655.671 47.15 653.971 45.65 653.971 44.15C653.971 43.2 654.671 42.4 655.421 42.2C656.021 42 656.421 42.2 656.771 42.85C657.521 44.2 658.421 45.1 659.771 45.1C662.021 45.1 663.221 43 664.671 38.35C666.071 33.95 668.621 24.45 670.721 15.55L666.971 15.15L667.521 13.8ZM699.281 28.65L700.231 29.6C698.981 32.2 696.431 35.7 693.031 35.7C690.581 35.7 690.581 33.05 691.281 30.6C691.431 30.1 691.631 29.25 691.781 28.65H691.681C689.531 31.9 685.681 35.7 681.481 35.7C678.681 35.7 677.531 33.55 677.531 30.65C677.531 25.15 681.031 17.8 686.031 14.65C687.931 13.45 689.631 12.95 691.381 12.95C693.381 12.95 695.081 13.75 695.631 15.3L696.181 13.55H699.281C697.431 18.95 694.931 27.25 693.981 31.8C693.781 32.75 693.831 33.6 694.531 33.6C696.031 33.6 698.081 31.2 699.281 28.65ZM680.931 30.5V30.55C680.931 32.05 681.481 33.6 683.031 33.6C685.581 33.6 688.381 31.4 690.981 27.25C692.331 25.1 694.581 19.7 694.631 17.8C694.631 15.3 693.131 14.45 691.531 14.45C689.631 14.45 687.881 15.2 685.931 17.45C683.031 20.9 680.931 26.3 680.931 30.5ZM706.787 3L707.287 1.75C709.987 1.7 712.987 1.4 714.837 0.949997C713.837 3.6 712.187 8.5 709.887 16.35C707.537 24.2 705.987 29.5 705.487 31.95C705.237 33.05 705.387 33.6 706.037 33.6C707.337 33.6 709.687 31.4 710.987 28.6L711.987 29.6C709.887 33.75 706.837 35.75 704.337 35.75C701.687 35.75 702.087 32.75 702.887 30.1C704.037 26.15 705.237 22.35 706.837 16.8C709.137 9.05 709.937 6 710.487 3.85C710.687 3.2 710.437 3 709.887 3H706.787ZM718.554 3L719.054 1.75C721.754 1.7 724.754 1.4 726.604 0.949997C725.604 3.6 723.954 8.5 721.654 16.35C719.304 24.2 717.754 29.5 717.254 31.95C717.004 33.05 717.154 33.6 717.804 33.6C719.104 33.6 721.454 31.4 722.754 28.6L723.754 29.6C721.654 33.75 718.604 35.75 716.104 35.75C713.454 35.75 713.854 32.75 714.654 30.1C715.804 26.15 717.004 22.35 718.604 16.8C720.904 9.05 721.704 6 722.254 3.85C722.454 3.2 722.204 3 721.654 3H718.554ZM740.622 3L741.122 1.75C743.772 1.65 747.072 1.3 748.622 0.949997C747.172 4.8 744.072 15.45 742.772 19.65C745.272 16.4 748.872 12.95 752.972 12.95C756.222 12.95 757.372 15.25 757.322 18.35C757.272 24.05 753.822 30.25 749.772 33.1C747.772 34.55 744.972 35.7 742.322 35.7C740.272 35.7 738.822 35.15 737.922 34.55C736.472 33.6 736.222 32.3 736.922 30.05C737.922 26.55 739.222 22.1 740.572 17.5C742.722 10.15 744.022 5.25 744.322 3.7C744.422 3.2 744.322 3.05 743.872 3.05L740.622 3ZM743.172 34.25H743.222C744.672 34.25 746.522 33.45 748.022 32.1C750.772 29.65 753.872 23.65 753.922 18.25C753.972 16.05 753.122 14.85 751.672 14.85C748.872 14.85 745.722 17.9 743.622 21.4C741.622 24.65 739.922 29.2 739.922 31.45C739.922 33.4 741.272 34.25 743.172 34.25ZM760.449 14C762.499 13.9 765.549 13.45 767.349 12.85C767.249 16.85 767.849 27 768.099 31.55C769.799 28.3 771.899 24.25 774.149 20.25C776.599 15.95 779.149 12.85 782.799 12.8L782.899 13.9C780.549 14.45 777.749 18.2 775.599 21.65C772.549 26.55 769.399 32.15 766.799 37.3C762.949 44.6 760.549 47.2 757.249 47.2C754.799 47.2 753.849 45.5 753.849 44.1C753.849 42.6 754.999 41.9 755.699 41.9C756.499 41.9 756.899 42.35 757.099 43C757.399 44.1 757.899 44.6 758.649 44.6C760.599 44.6 762.499 42.5 765.649 36C765.349 35.55 765.249 34.6 765.199 33.6C765.049 27.35 764.399 18.95 764.049 16.25C763.949 15.35 763.549 15.15 760.049 15.25L760.449 14ZM32.9824 65.65H33.0324C36.8824 65.65 39.7824 68 39.7824 71.85C39.7824 74.35 38.5324 76.05 36.5824 77.55C35.3324 78.5 33.9824 79.25 31.8824 80.5C35.7324 83.7 37.2824 85.75 37.2824 88.75C37.2824 91.65 35.8324 93.8 33.6824 95.45C31.6824 97 29.0324 97.7 26.2324 97.7C21.1824 97.7 17.7324 95.05 17.7324 90.9C17.7324 88.5 18.9324 86.6 20.7824 85.15C22.0824 84.05 24.3324 82.75 26.8824 81.2C24.4824 78.95 23.2324 77.05 23.2324 74.5C23.2324 72.15 24.1824 70.05 25.8824 68.4C27.8824 66.5 30.2824 65.65 32.9824 65.65ZM32.2324 67.05H32.1824C28.8824 67.05 26.3824 69.5 26.3824 73.15C26.3824 75.8 28.1324 77.75 30.8324 79.65C33.8324 77.9 36.9824 75.6 36.9824 71.85C36.9824 68.95 35.1824 67.05 32.2324 67.05ZM26.9824 96.3H27.0824C30.6824 96.3 33.8324 93.9 33.8324 89.95C33.8324 86.8 31.2824 84.6 27.9824 82.05C23.7324 84.5 20.8824 87.15 20.8824 90.5C20.8824 93.9 23.2824 96.3 26.9824 96.3ZM53.9305 86.25C55.7805 80.3 57.5305 74.05 59.0305 69C53.1805 74.55 47.7305 80.3 43.4805 85.5C44.2305 85.8 49.1305 86.25 53.9305 86.25ZM40.5305 87.15L40.4805 85.95C47.2805 78.55 55.7805 70.2 59.4805 66.65C60.5305 66.45 61.8305 66.05 62.7305 65.65L63.0805 65.85C60.9305 72.35 59.1305 79.4 57.2805 86.15C60.0805 86.15 61.8805 85.65 62.8305 85.3L62.5305 86.65C61.3305 87.3 59.2305 87.85 56.7805 88C56.0305 90.75 55.2305 93.75 54.3805 97.2C53.1805 97.15 51.7805 97.45 50.8805 97.8L50.5305 97.55C51.2805 95.5 52.0805 92.55 53.4305 88.1C48.7805 88.1 41.9305 87.65 40.5305 87.15ZM69.0785 97.85L67.7285 96.6C72.8785 90.85 87.3785 73.45 91.7785 68.4C89.9785 69.45 87.7285 69.95 85.5285 69.95C84.1285 69.95 82.5785 69.65 81.6285 69.25C81.7785 69.65 81.8785 70.5 81.8785 71.15C81.8785 76.8 78.1285 83.1 72.4285 83.1C69.5285 83.1 67.3285 81.35 67.3285 77.6C67.3285 72.2 71.3785 65.65 77.1285 65.65C78.0785 65.65 79.1285 65.95 79.9285 66.4L80.5785 65.95C81.7285 67.25 83.4785 68.4 86.0785 68.4C90.1285 68.4 92.2785 67 93.2785 66.2C93.7285 65.85 94.2285 65.25 95.1785 64.1L97.7785 63.8C92.5285 69.85 79.6785 84.95 69.0785 97.85ZM76.8285 67.1H76.7785C76.0785 67.1 75.2785 67.35 74.4285 68C71.9785 70.05 70.3785 74.6 70.3785 78.05C70.3785 79.9 70.9785 81.65 73.0785 81.65C77.3785 81.65 79.7785 74.85 79.7785 70.75C79.7785 68.75 79.1785 67.1 76.8285 67.1ZM91.8785 79.1H91.9285C95.3285 79.1 96.7285 81.4 96.7285 84.55C96.7285 90 93.3285 96.55 87.3785 96.55C84.4285 96.55 82.2785 94.85 82.2785 91.05C82.2785 86.05 86.2285 79.1 91.8785 79.1ZM91.7785 80.55H91.7285C90.8285 80.55 90.0785 80.9 89.3285 81.5C86.9785 83.4 85.3785 88.1 85.3785 91.5C85.3785 93.45 86.0785 95.05 88.1285 95.05C92.3785 95.05 94.6785 88.15 94.6785 84.5C94.6785 82.5 94.1785 80.55 91.7785 80.55ZM113.665 70.8L113.615 69.9C115.815 69.25 117.815 67.3 118.765 67.15C119.765 67 120.465 68.2 120.565 68.65C120.715 69.2 120.165 70.7 119.115 70.9C118.215 71.05 115.915 70.4 113.665 70.8ZM111.815 69.4L111.065 70.1C109.515 68.45 107.115 67.65 106.565 66.95C105.965 66.15 106.515 64.75 106.815 64.35C107.215 64 108.615 63.45 109.265 64.3C109.815 65 110.415 67.65 111.815 69.4ZM113.115 69.55L112.265 69.3C112.965 67.1 112.565 64.2 112.865 63.4C113.265 62.45 114.615 62.3 115.065 62.45C115.565 62.55 116.565 63.5 116.165 64.6C115.815 65.45 113.965 67.35 113.115 69.55ZM111.515 71.95L112.365 72.2C111.715 74.45 112.215 77.1 111.865 78.05C111.515 79 110.015 79.2 109.565 79.1C109.065 78.95 108.065 77.9 108.415 76.75C108.665 75.95 110.615 74.2 111.515 71.95ZM111.015 70.65L111.115 71.6C108.865 72.25 106.965 74.2 106.115 74.35C105.065 74.55 104.215 73.25 104.115 72.8C104.065 72.3 104.465 70.8 105.515 70.6C106.415 70.45 108.815 71.1 111.015 70.65ZM112.915 72L113.615 71.35C115.015 73 117.565 73.8 118.115 74.5C118.715 75.2 118.165 76.7 117.765 77.05C117.415 77.35 116.015 78 115.415 77.05C114.865 76.4 114.415 73.65 112.915 72ZM144.668 79.15L143.368 80.55C142.768 80.5 141.868 80.35 141.318 80.35C136.818 80.35 133.418 83.85 133.418 88.65C133.418 93.45 136.818 95.85 141.168 95.85C147.318 95.85 151.118 91.4 151.518 85.15L152.318 85.1L153.168 87.65C151.468 93.75 146.268 97.8 139.568 97.8C134.118 97.8 129.468 95.3 129.468 89.3C129.468 86.3 130.668 84 133.068 82.05C134.618 80.75 137.018 79.8 139.118 79.4L139.168 79.15C137.568 78.5 135.868 77.25 135.868 74.2C135.868 69.1 140.168 65.85 145.268 65.85C150.668 65.85 151.968 69.05 151.968 70.8C151.968 72.75 150.868 73.4 150.018 73.4C149.118 73.4 148.568 72.75 148.818 71.9C148.968 71.5 149.118 70.85 149.118 70.45C149.118 68.65 147.918 67.15 145.218 67.15C141.168 67.15 139.268 71 139.268 74.45C139.268 77.15 140.468 78.3 141.568 78.85C142.318 78.85 143.468 78.75 144.468 78.7L144.668 79.15ZM143.468 87.45L142.568 86.7C144.018 83.8 146.718 81.3 149.218 81.3C150.968 81.3 153.068 81.4 155.468 81.5C157.968 81.6 159.018 80.8 159.118 79.05C159.168 78.6 159.068 77.75 158.968 77.4L159.368 77.1C159.968 77.25 160.718 77.85 160.668 78.75C160.618 80.7 158.818 82.55 157.568 83.3C156.568 83.95 155.568 84.4 154.068 84.35C152.318 84.35 149.818 84.15 148.468 84.15C146.168 84.15 144.868 85.1 143.468 87.45ZM187.35 74.8L188.3 75.4C187.5 77.3 186.4 80.1 185.7 83L184.55 83.1C185.35 78.9 184.25 76.35 181.05 76.35C178.7 76.35 177.25 78.15 177.25 80.25C177.25 81.7 177.8 82.55 178.85 83.4C179.9 84.25 181.75 85.65 182.95 86.55C184.6 87.7 185.4 88.85 185.4 91.05C185.35 93.2 184.25 94.85 182.95 95.9C181.6 97.05 179.55 97.7 177.1 97.7C174.85 97.7 172.2 97 170.3 95.7C170.85 94.4 171.7 91.55 172.5 88.8L173.75 88.6C173.45 89.5 173.2 91.2 173.15 92.1C173.1 94.7 174.6 96.3 177.85 96.3C180.05 96.3 182.3 95.05 182.35 92.35C182.35 90.85 181.75 90.05 180.65 89.2C179.7 88.35 178.3 87.2 177.05 86.2C175.5 85.1 174.35 83.7 174.35 81.5C174.35 79.5 175.15 77.85 176.75 76.55C178.05 75.45 179.65 74.95 181.6 74.95C183.6 74.95 185.4 75.75 186.05 76.7L187.35 74.8ZM200.076 90.2L200.776 91.75C198.826 95.7 195.176 97.7 192.576 97.7C188.926 97.7 189.526 94.95 190.176 92.7C191.576 88 193.776 81.05 194.826 77.55L191.226 77.15L191.876 75.8H195.326C196.126 73.45 196.726 71.3 197.176 69.8C198.676 69.45 199.776 69.2 200.826 68.75C200.426 69.8 199.276 73.1 198.426 75.8H204.026L203.326 77.15L197.876 77.55C196.926 80.4 193.926 90.1 193.026 93.9C192.776 95 192.826 95.85 194.026 95.85C196.426 95.85 198.976 92.75 200.076 90.2ZM204.883 77.45L205.383 76.15C207.633 75.95 210.283 75.55 212.183 74.95C211.883 76.9 210.733 81.2 210.133 83.6H210.283C213.183 78.05 215.733 74.95 218.733 74.95C220.483 74.95 220.983 76.4 220.983 77.25C220.983 79.15 219.733 79.8 218.983 79.8C218.333 79.8 217.983 79.45 217.833 78.85C217.683 78.15 217.383 77.75 216.733 77.75C214.633 77.75 211.583 83.2 209.933 87.25C208.783 90.05 207.633 93.3 206.483 97.1C205.283 97.2 204.033 97.3 203.133 97.5C205.433 91.05 208.083 81.8 208.483 78.2C208.533 77.65 208.283 77.4 207.883 77.4C207.283 77.4 205.783 77.4 204.883 77.45ZM237.123 89.45L237.223 91.8C234.723 95.8 230.523 97.7 226.873 97.7C222.873 97.7 220.773 95.15 220.773 90.85C220.773 85.85 223.123 80.4 227.223 77.15C229.073 75.7 231.173 74.95 233.423 74.95C237.573 74.95 238.673 77.55 238.673 79.9C238.673 82.2 236.873 83.5 235.023 84.35C232.323 85.65 227.773 86.7 224.573 87.1C224.373 88.05 224.223 89.45 224.223 90.5C224.223 93.45 225.373 95.75 228.273 95.75C232.023 95.75 234.773 93.4 236.373 89.45H237.123ZM232.923 76.35H232.773C230.373 76.35 226.873 78.65 224.923 85.5C227.423 85.25 231.023 84.35 232.723 83.6C234.623 82.65 235.573 81.35 235.573 79.5C235.573 77.55 234.623 76.35 232.923 76.35ZM262.592 90.7L263.492 91.7C261.492 95.65 258.442 97.75 255.942 97.75C253.292 97.75 253.492 95 254.642 91.9C256.042 88.15 257.642 83.8 258.892 80.25C259.492 78.6 259.292 77 257.492 77C252.542 77 247.642 85.05 245.592 90.65C244.942 92.45 244.242 94.15 243.342 97.1C242.192 97.2 241.092 97.35 240.042 97.5C242.392 91.3 245.142 81.9 245.892 78.2C245.992 77.55 245.942 77.35 245.442 77.35L242.342 77.4L242.792 76.15C245.092 75.9 247.692 75.6 249.942 74.95C249.042 77.9 248.092 81.35 247.292 83.95C250.142 79.65 253.992 74.95 258.992 74.95C259.992 74.95 260.892 75.25 261.392 75.7C262.842 77 262.242 79.85 261.592 81.6C260.242 85.35 258.342 90.15 257.192 93.95C256.892 94.9 256.992 95.55 257.592 95.55C259.092 95.55 261.292 93.25 262.592 90.7ZM277.679 74.95H277.729C279.529 74.95 280.979 75.35 282.179 76.55C283.029 75.95 283.779 75.55 284.429 75.25C285.129 75 285.729 74.85 286.329 74.85C287.329 74.85 288.029 75.6 288.029 76C288.029 76.55 287.029 77.5 286.429 77.85C285.429 77.2 284.029 77.05 282.879 77.55C283.379 78.3 283.629 79.55 283.629 80.7C283.629 85.75 280.129 90.75 274.629 90.75C273.329 90.75 271.779 90.3 270.929 89.7C269.729 90.1 268.929 90.85 268.929 91.9C268.929 92.75 269.679 93.55 271.329 94.1C273.179 94.7 275.779 95.5 278.029 96.2C280.729 96.95 282.779 98.5 282.779 101.6C282.779 107.3 276.829 109.5 271.729 109.5C267.629 109.5 261.879 107.4 261.879 102.5C261.879 99.45 264.629 97.5 267.629 97.5C268.079 97.5 268.579 97.6 268.879 97.7L269.279 98.65C266.729 98.7 264.729 99.95 264.729 102.3C264.729 105.25 268.229 107.85 272.929 107.85C277.429 107.85 279.779 105.5 279.779 102.9C279.779 101.2 278.729 99.9 276.779 99.3C274.629 98.6 272.379 97.8 270.429 97.2C268.279 96.6 266.279 95.4 266.279 92.9C266.279 91.05 267.729 89.6 269.979 88.9C269.029 87.9 268.629 86.55 268.629 84.95C268.629 80.2 272.429 74.95 277.679 74.95ZM277.729 76.3H277.679C276.379 76.3 275.179 76.85 274.179 78.2C272.629 80.15 271.729 83.15 271.729 85.65C271.729 88.4 273.229 89.4 274.729 89.4C275.979 89.4 277.079 88.85 277.979 87.85C279.629 85.95 280.679 82.7 280.679 80.05C280.679 77.55 279.529 76.3 277.729 76.3ZM298.172 90.2L298.872 91.75C296.922 95.7 293.272 97.7 290.672 97.7C287.022 97.7 287.622 94.95 288.272 92.7C289.672 88 291.872 81.05 292.922 77.55L289.322 77.15L289.972 75.8H293.422C294.222 73.45 294.822 71.3 295.272 69.8C296.772 69.45 297.872 69.2 298.922 68.75C298.522 69.8 297.372 73.1 296.522 75.8H302.122L301.422 77.15L295.972 77.55C295.022 80.4 292.022 90.1 291.122 93.9C290.872 95 290.922 95.85 292.122 95.85C294.522 95.85 297.072 92.75 298.172 90.2ZM305.732 65.1L306.232 63.9C307.532 63.85 311.932 63.55 313.882 63C313.132 64.8 310.632 72.65 307.732 82.75C310.382 79.15 314.532 74.95 319.132 74.95C320.382 74.95 321.032 75.35 321.582 75.85C322.782 77.05 322.232 79.9 321.682 81.55C320.082 86.25 318.332 90.8 317.382 93.85C317.082 94.7 317.032 95.6 317.782 95.6C319.332 95.6 321.482 93.15 322.682 90.65L323.632 91.7C321.582 95.7 318.832 97.75 316.232 97.75C313.532 97.75 313.782 94.9 314.882 91.8C316.532 86.9 318.232 82.4 319.032 79.9C319.382 78.7 319.532 76.85 317.582 76.85C315.432 76.85 312.332 78.85 309.232 83.15C307.382 85.75 306.382 88.15 305.532 90.75C304.932 92.65 304.332 94.45 303.582 97.15C302.882 97.15 301.532 97.3 300.332 97.45C301.532 93.55 303.832 86.6 306.132 78.35C308.382 70.45 309.132 67.7 309.582 65.9C309.682 65.35 309.582 65.1 308.882 65.1H305.732ZM342.982 89.45L343.082 91.8C340.582 95.8 336.382 97.7 332.732 97.7C328.732 97.7 326.632 95.15 326.632 90.85C326.632 85.85 328.982 80.4 333.082 77.15C334.932 75.7 337.032 74.95 339.282 74.95C343.432 74.95 344.532 77.55 344.532 79.9C344.532 82.2 342.732 83.5 340.882 84.35C338.182 85.65 333.632 86.7 330.432 87.1C330.232 88.05 330.082 89.45 330.082 90.5C330.082 93.45 331.232 95.75 334.132 95.75C337.882 95.75 340.632 93.4 342.232 89.45H342.982ZM338.782 76.35H338.632C336.232 76.35 332.732 78.65 330.782 85.5C333.282 85.25 336.882 84.35 338.582 83.6C340.482 82.65 341.432 81.35 341.432 79.5C341.432 77.55 340.482 76.35 338.782 76.35ZM368.452 90.7L369.352 91.7C367.352 95.65 364.302 97.75 361.802 97.75C359.152 97.75 359.352 95 360.502 91.9C361.902 88.15 363.502 83.8 364.752 80.25C365.352 78.6 365.152 77 363.352 77C358.402 77 353.502 85.05 351.452 90.65C350.802 92.45 350.102 94.15 349.202 97.1C348.052 97.2 346.952 97.35 345.902 97.5C348.252 91.3 351.002 81.9 351.752 78.2C351.852 77.55 351.802 77.35 351.302 77.35L348.202 77.4L348.652 76.15C350.952 75.9 353.552 75.6 355.802 74.95C354.902 77.9 353.952 81.35 353.152 83.95C356.002 79.65 359.852 74.95 364.852 74.95C365.852 74.95 366.752 75.25 367.252 75.7C368.702 77 368.102 79.85 367.452 81.6C366.102 85.35 364.202 90.15 363.052 93.95C362.752 94.9 362.852 95.55 363.452 95.55C364.952 95.55 367.152 93.25 368.452 90.7ZM388.327 74.8L389.277 75.4C388.477 77.3 387.377 80.1 386.677 83L385.527 83.1C386.327 78.9 385.227 76.35 382.027 76.35C379.677 76.35 378.227 78.15 378.227 80.25C378.227 81.7 378.777 82.55 379.827 83.4C380.877 84.25 382.727 85.65 383.927 86.55C385.577 87.7 386.377 88.85 386.377 91.05C386.327 93.2 385.227 94.85 383.927 95.9C382.577 97.05 380.527 97.7 378.077 97.7C375.827 97.7 373.177 97 371.277 95.7C371.827 94.4 372.677 91.55 373.477 88.8L374.727 88.6C374.427 89.5 374.177 91.2 374.127 92.1C374.077 94.7 375.577 96.3 378.827 96.3C381.027 96.3 383.277 95.05 383.327 92.35C383.327 90.85 382.727 90.05 381.627 89.2C380.677 88.35 379.277 87.2 378.027 86.2C376.477 85.1 375.327 83.7 375.327 81.5C375.327 79.5 376.127 77.85 377.727 76.55C379.027 75.45 380.627 74.95 382.577 74.95C384.577 74.95 386.377 75.75 387.027 76.7L388.327 74.8ZM405.244 65.1L405.744 63.9C407.044 63.85 411.444 63.55 413.394 63C412.644 64.8 410.144 72.65 407.244 82.75C409.894 79.15 414.044 74.95 418.644 74.95C419.894 74.95 420.544 75.35 421.094 75.85C422.294 77.05 421.744 79.9 421.194 81.55C419.594 86.25 417.844 90.8 416.894 93.85C416.594 94.7 416.544 95.6 417.294 95.6C418.844 95.6 420.994 93.15 422.194 90.65L423.144 91.7C421.094 95.7 418.344 97.75 415.744 97.75C413.044 97.75 413.294 94.9 414.394 91.8C416.044 86.9 417.744 82.4 418.544 79.9C418.894 78.7 419.044 76.85 417.094 76.85C414.944 76.85 411.844 78.85 408.744 83.15C406.894 85.75 405.894 88.15 405.044 90.75C404.444 92.65 403.844 94.45 403.094 97.15C402.394 97.15 401.044 97.3 399.844 97.45C401.044 93.55 403.344 86.6 405.644 78.35C407.894 70.45 408.644 67.7 409.094 65.9C409.194 65.35 409.094 65.1 408.394 65.1H405.244ZM447.645 90.65L448.595 91.6C447.345 94.2 444.795 97.7 441.395 97.7C438.945 97.7 438.945 95.05 439.645 92.6C439.795 92.1 439.995 91.25 440.145 90.65H440.045C437.895 93.9 434.045 97.7 429.845 97.7C427.045 97.7 425.895 95.55 425.895 92.65C425.895 87.15 429.395 79.8 434.395 76.65C436.295 75.45 437.995 74.95 439.745 74.95C441.745 74.95 443.445 75.75 443.995 77.3L444.545 75.55H447.645C445.795 80.95 443.295 89.25 442.345 93.8C442.145 94.75 442.195 95.6 442.895 95.6C444.395 95.6 446.445 93.2 447.645 90.65ZM429.295 92.5V92.55C429.295 94.05 429.845 95.6 431.395 95.6C433.945 95.6 436.745 93.4 439.345 89.25C440.695 87.1 442.945 81.7 442.995 79.8C442.995 77.3 441.495 76.45 439.895 76.45C437.995 76.45 436.245 77.2 434.295 79.45C431.395 82.9 429.295 88.3 429.295 92.5ZM460.405 65.55H460.455C461.605 65.55 462.155 66.35 462.105 67.6C462.055 69 460.955 70 459.755 70C458.755 70 458.005 69.3 458.055 68.05C458.105 66.5 459.355 65.55 460.405 65.55ZM452.555 77.45L453.005 76.15C455.205 75.9 458.205 75.6 460.305 74.95L460.455 75.15C458.905 78.6 455.455 89.65 454.355 93.9C454.105 94.9 454.055 95.6 454.705 95.6C456.355 95.6 458.705 92.9 459.755 90.65L460.655 91.65C458.655 95.6 455.755 97.7 453.055 97.7C450.505 97.7 450.805 95.2 451.705 92.3C452.955 88.4 455.055 82.2 456.205 78.15C456.405 77.5 456.305 77.3 455.705 77.35C455.055 77.35 453.755 77.35 452.555 77.45ZM464.502 77.45L465.002 76.15C467.252 75.95 469.902 75.55 471.802 74.95C471.502 76.9 470.352 81.2 469.752 83.6H469.902C472.802 78.05 475.352 74.95 478.352 74.95C480.102 74.95 480.602 76.4 480.602 77.25C480.602 79.15 479.352 79.8 478.602 79.8C477.952 79.8 477.602 79.45 477.452 78.85C477.302 78.15 477.002 77.75 476.352 77.75C474.252 77.75 471.202 83.2 469.552 87.25C468.402 90.05 467.252 93.3 466.102 97.1C464.902 97.2 463.652 97.3 462.752 97.5C465.052 91.05 467.702 81.8 468.102 78.2C468.152 77.65 467.902 77.4 467.502 77.4C466.902 77.4 465.402 77.4 464.502 77.45ZM512.83 90.65L513.78 91.6C512.53 94.2 509.98 97.7 506.58 97.7C504.13 97.7 504.13 95.05 504.83 92.6C504.98 92.1 505.18 91.25 505.33 90.65H505.23C503.08 93.9 499.23 97.7 495.03 97.7C492.23 97.7 491.08 95.55 491.08 92.65C491.08 87.15 494.58 79.8 499.58 76.65C501.48 75.45 503.18 74.95 504.93 74.95C506.93 74.95 508.63 75.75 509.18 77.3L509.73 75.55H512.83C510.98 80.95 508.48 89.25 507.53 93.8C507.33 94.75 507.38 95.6 508.08 95.6C509.58 95.6 511.63 93.2 512.83 90.65ZM494.48 92.5V92.55C494.48 94.05 495.03 95.6 496.58 95.6C499.13 95.6 501.93 93.4 504.53 89.25C505.88 87.1 508.13 81.7 508.18 79.8C508.18 77.3 506.68 76.45 505.08 76.45C503.18 76.45 501.43 77.2 499.48 79.45C496.58 82.9 494.48 88.3 494.48 92.5ZM527.435 74.95H527.485C529.285 74.95 530.735 75.35 531.935 76.55C532.785 75.95 533.535 75.55 534.185 75.25C534.885 75 535.485 74.85 536.085 74.85C537.085 74.85 537.785 75.6 537.785 76C537.785 76.55 536.785 77.5 536.185 77.85C535.185 77.2 533.785 77.05 532.635 77.55C533.135 78.3 533.385 79.55 533.385 80.7C533.385 85.75 529.885 90.75 524.385 90.75C523.085 90.75 521.535 90.3 520.685 89.7C519.485 90.1 518.685 90.85 518.685 91.9C518.685 92.75 519.435 93.55 521.085 94.1C522.935 94.7 525.535 95.5 527.785 96.2C530.485 96.95 532.535 98.5 532.535 101.6C532.535 107.3 526.585 109.5 521.485 109.5C517.385 109.5 511.635 107.4 511.635 102.5C511.635 99.45 514.385 97.5 517.385 97.5C517.835 97.5 518.335 97.6 518.635 97.7L519.035 98.65C516.485 98.7 514.485 99.95 514.485 102.3C514.485 105.25 517.985 107.85 522.685 107.85C527.185 107.85 529.535 105.5 529.535 102.9C529.535 101.2 528.485 99.9 526.535 99.3C524.385 98.6 522.135 97.8 520.185 97.2C518.035 96.6 516.035 95.4 516.035 92.9C516.035 91.05 517.485 89.6 519.735 88.9C518.785 87.9 518.385 86.55 518.385 84.95C518.385 80.2 522.185 74.95 527.435 74.95ZM527.485 76.3H527.435C526.135 76.3 524.935 76.85 523.935 78.2C522.385 80.15 521.485 83.15 521.485 85.65C521.485 88.4 522.985 89.4 524.485 89.4C525.735 89.4 526.835 88.85 527.735 87.85C529.385 85.95 530.435 82.7 530.435 80.05C530.435 77.55 529.285 76.3 527.485 76.3ZM558.338 90.65L559.288 91.6C558.038 94.2 555.488 97.7 552.088 97.7C549.638 97.7 549.638 95.05 550.338 92.6C550.488 92.1 550.688 91.25 550.838 90.65H550.738C548.588 93.9 544.738 97.7 540.538 97.7C537.738 97.7 536.588 95.55 536.588 92.65C536.588 87.15 540.088 79.8 545.088 76.65C546.988 75.45 548.688 74.95 550.438 74.95C552.438 74.95 554.138 75.75 554.688 77.3L555.238 75.55H558.338C556.488 80.95 553.988 89.25 553.038 93.8C552.838 94.75 552.888 95.6 553.588 95.6C555.088 95.6 557.138 93.2 558.338 90.65ZM539.988 92.5V92.55C539.988 94.05 540.538 95.6 542.088 95.6C544.638 95.6 547.438 93.4 550.038 89.25C551.388 87.1 553.638 81.7 553.688 79.8C553.688 77.3 552.188 76.45 550.588 76.45C548.688 76.45 546.938 77.2 544.988 79.45C542.088 82.9 539.988 88.3 539.988 92.5ZM571.099 65.55H571.149C572.299 65.55 572.849 66.35 572.799 67.6C572.749 69 571.649 70 570.449 70C569.449 70 568.699 69.3 568.749 68.05C568.799 66.5 570.049 65.55 571.099 65.55ZM563.249 77.45L563.699 76.15C565.899 75.9 568.899 75.6 570.999 74.95L571.149 75.15C569.599 78.6 566.149 89.65 565.049 93.9C564.799 94.9 564.749 95.6 565.399 95.6C567.049 95.6 569.399 92.9 570.449 90.65L571.349 91.65C569.349 95.6 566.449 97.7 563.749 97.7C561.199 97.7 561.499 95.2 562.399 92.3C563.649 88.4 565.749 82.2 566.899 78.15C567.099 77.5 566.999 77.3 566.399 77.35C565.749 77.35 564.449 77.35 563.249 77.45ZM595.795 90.7L596.695 91.7C594.695 95.65 591.645 97.75 589.145 97.75C586.495 97.75 586.695 95 587.845 91.9C589.245 88.15 590.845 83.8 592.095 80.25C592.695 78.6 592.495 77 590.695 77C585.745 77 580.845 85.05 578.795 90.65C578.145 92.45 577.445 94.15 576.545 97.1C575.395 97.2 574.295 97.35 573.245 97.5C575.595 91.3 578.345 81.9 579.095 78.2C579.195 77.55 579.145 77.35 578.645 77.35L575.545 77.4L575.995 76.15C578.295 75.9 580.895 75.6 583.145 74.95C582.245 77.9 581.295 81.35 580.495 83.95C583.345 79.65 587.195 74.95 592.195 74.95C593.195 74.95 594.095 75.25 594.595 75.7C596.045 77 595.445 79.85 594.795 81.6C593.445 85.35 591.545 90.15 590.395 93.95C590.095 94.9 590.195 95.55 590.795 95.55C592.295 95.55 594.495 93.25 595.795 90.7ZM615.671 74.8L616.621 75.4C615.821 77.3 614.721 80.1 614.021 83L612.871 83.1C613.671 78.9 612.571 76.35 609.371 76.35C607.021 76.35 605.571 78.15 605.571 80.25C605.571 81.7 606.121 82.55 607.171 83.4C608.221 84.25 610.071 85.65 611.271 86.55C612.921 87.7 613.721 88.85 613.721 91.05C613.671 93.2 612.571 94.85 611.271 95.9C609.921 97.05 607.871 97.7 605.421 97.7C603.171 97.7 600.521 97 598.621 95.7C599.171 94.4 600.021 91.55 600.821 88.8L602.071 88.6C601.771 89.5 601.521 91.2 601.471 92.1C601.421 94.7 602.921 96.3 606.171 96.3C608.371 96.3 610.621 95.05 610.671 92.35C610.671 90.85 610.071 90.05 608.971 89.2C608.021 88.35 606.621 87.2 605.371 86.2C603.821 85.1 602.671 83.7 602.671 81.5C602.671 79.5 603.471 77.85 605.071 76.55C606.371 75.45 607.971 74.95 609.921 74.95C611.921 74.95 613.721 75.75 614.371 76.7L615.671 74.8ZM628.396 90.2L629.096 91.75C627.146 95.7 623.496 97.7 620.896 97.7C617.246 97.7 617.846 94.95 618.496 92.7C619.896 88 622.096 81.05 623.146 77.55L619.546 77.15L620.196 75.8H623.646C624.446 73.45 625.046 71.3 625.496 69.8C626.996 69.45 628.096 69.2 629.146 68.75C628.746 69.8 627.596 73.1 626.746 75.8H632.346L631.646 77.15L626.196 77.55C625.246 80.4 622.246 90.1 621.346 93.9C621.096 95 621.146 95.85 622.346 95.85C624.746 95.85 627.296 92.75 628.396 90.2ZM646.75 65L647.25 63.75C649.9 63.65 653.2 63.3 654.75 62.95C653.3 66.8 650.2 77.45 648.9 81.65C651.4 78.4 655 74.95 659.1 74.95C662.35 74.95 663.5 77.25 663.45 80.35C663.4 86.05 659.95 92.25 655.9 95.1C653.9 96.55 651.1 97.7 648.45 97.7C646.4 97.7 644.95 97.15 644.05 96.55C642.6 95.6 642.35 94.3 643.05 92.05C644.05 88.55 645.35 84.1 646.7 79.5C648.85 72.15 650.15 67.25 650.45 65.7C650.55 65.2 650.45 65.05 650 65.05L646.75 65ZM649.3 96.25H649.35C650.8 96.25 652.65 95.45 654.15 94.1C656.9 91.65 660 85.65 660.05 80.25C660.1 78.05 659.25 76.85 657.8 76.85C655 76.85 651.85 79.9 649.75 83.4C647.75 86.65 646.05 91.2 646.05 93.45C646.05 95.4 647.4 96.25 649.3 96.25ZM667.285 77.45L667.785 76.15C670.035 75.95 672.685 75.55 674.585 74.95C674.285 76.9 673.135 81.2 672.535 83.6H672.685C675.585 78.05 678.135 74.95 681.135 74.95C682.885 74.95 683.385 76.4 683.385 77.25C683.385 79.15 682.135 79.8 681.385 79.8C680.735 79.8 680.385 79.45 680.235 78.85C680.085 78.15 679.785 77.75 679.135 77.75C677.035 77.75 673.985 83.2 672.335 87.25C671.185 90.05 670.035 93.3 668.885 97.1C667.685 97.2 666.435 97.3 665.535 97.5C667.835 91.05 670.485 81.8 670.885 78.2C670.935 77.65 670.685 77.4 670.285 77.4C669.685 77.4 668.185 77.4 667.285 77.45ZM699.525 89.45L699.625 91.8C697.125 95.8 692.925 97.7 689.275 97.7C685.275 97.7 683.175 95.15 683.175 90.85C683.175 85.85 685.525 80.4 689.625 77.15C691.475 75.7 693.575 74.95 695.825 74.95C699.975 74.95 701.075 77.55 701.075 79.9C701.075 82.2 699.275 83.5 697.425 84.35C694.725 85.65 690.175 86.7 686.975 87.1C686.775 88.05 686.625 89.45 686.625 90.5C686.625 93.45 687.775 95.75 690.675 95.75C694.425 95.75 697.175 93.4 698.775 89.45H699.525ZM695.325 76.35H695.175C692.775 76.35 689.275 78.65 687.325 85.5C689.825 85.25 693.425 84.35 695.125 83.6C697.025 82.65 697.975 81.35 697.975 79.5C697.975 77.55 697.025 76.35 695.325 76.35ZM725.038 90.65L725.988 91.6C724.738 94.2 722.188 97.7 718.788 97.7C716.338 97.7 716.338 95.05 717.038 92.6C717.188 92.1 717.388 91.25 717.538 90.65H717.438C715.288 93.9 711.438 97.7 707.238 97.7C704.438 97.7 703.288 95.55 703.288 92.65C703.288 87.15 706.788 79.8 711.788 76.65C713.688 75.45 715.388 74.95 717.138 74.95C719.138 74.95 720.838 75.75 721.388 77.3L721.938 75.55H725.038C723.188 80.95 720.688 89.25 719.738 93.8C719.538 94.75 719.588 95.6 720.288 95.6C721.788 95.6 723.838 93.2 725.038 90.65ZM706.688 92.5V92.55C706.688 94.05 707.238 95.6 708.787 95.6C711.338 95.6 714.138 93.4 716.738 89.25C718.088 87.1 720.338 81.7 720.388 79.8C720.388 77.3 718.888 76.45 717.288 76.45C715.388 76.45 713.638 77.2 711.688 79.45C708.787 82.9 706.688 88.3 706.688 92.5ZM732.593 65.05L733.043 63.85C735.293 63.7 738.893 63.45 740.593 62.95C738.343 69.05 735.693 78.35 733.793 84.85C736.293 84.15 738.643 81.9 740.043 80.15C742.043 77.75 744.343 74.9 746.793 74.9C748.343 74.9 748.943 75.75 748.943 76.65C748.943 77.8 748.193 78.25 747.593 78.35C747.243 78.4 746.943 78.25 746.693 78.05C746.393 77.7 745.943 77.55 745.543 77.55C744.643 77.55 743.443 78.35 741.293 80.9C740.043 82.4 738.593 83.7 737.693 84.2C739.693 84.5 740.993 86.55 741.343 88.9C741.593 90.45 741.743 91.9 741.943 93.4C742.093 94.7 742.593 95.5 743.343 95.5C744.343 95.5 746.043 94.05 747.493 90.7L748.493 91.55C746.643 96.25 743.743 97.9 741.793 97.9C739.793 97.9 738.993 96.2 738.643 93.6C738.493 91.85 738.393 90.35 738.143 88.65C737.943 87.05 737.193 85.55 735.743 85.55C734.943 85.55 733.743 86.35 733.293 86.9C732.093 90.75 731.043 94.4 730.293 97.1C729.193 97.15 727.843 97.25 726.943 97.35C727.743 95 729.893 88.15 732.343 79.75C734.643 72.1 735.693 68.2 736.243 65.9C736.393 65.3 736.193 65.1 735.543 65.05H732.593ZM772.303 90.65L773.253 91.6C772.003 94.2 769.453 97.7 766.053 97.7C763.603 97.7 763.603 95.05 764.303 92.6C764.453 92.1 764.653 91.25 764.803 90.65H764.703C762.553 93.9 758.703 97.7 754.503 97.7C751.703 97.7 750.553 95.55 750.553 92.65C750.553 87.15 754.053 79.8 759.053 76.65C760.953 75.45 762.653 74.95 764.403 74.95C766.403 74.95 768.103 75.75 768.653 77.3L769.203 75.55H772.303C770.453 80.95 767.953 89.25 767.003 93.8C766.803 94.75 766.853 95.6 767.553 95.6C769.053 95.6 771.103 93.2 772.303 90.65ZM753.953 92.5V92.55C753.953 94.05 754.503 95.6 756.053 95.6C758.603 95.6 761.403 93.4 764.003 89.25C765.353 87.1 767.603 81.7 767.653 79.8C767.653 77.3 766.153 76.45 764.553 76.45C762.653 76.45 760.903 77.2 758.953 79.45C756.053 82.9 753.953 88.3 753.953 92.5ZM786.908 74.95H786.958C788.758 74.95 790.208 75.35 791.408 76.55C792.258 75.95 793.008 75.55 793.658 75.25C794.358 75 794.958 74.85 795.558 74.85C796.558 74.85 797.258 75.6 797.258 76C797.258 76.55 796.258 77.5 795.658 77.85C794.658 77.2 793.258 77.05 792.108 77.55C792.608 78.3 792.858 79.55 792.858 80.7C792.858 85.75 789.358 90.75 783.858 90.75C782.558 90.75 781.008 90.3 780.158 89.7C778.958 90.1 778.158 90.85 778.158 91.9C778.158 92.75 778.908 93.55 780.558 94.1C782.408 94.7 785.008 95.5 787.258 96.2C789.958 96.95 792.008 98.5 792.008 101.6C792.008 107.3 786.058 109.5 780.958 109.5C776.858 109.5 771.108 107.4 771.108 102.5C771.108 99.45 773.858 97.5 776.858 97.5C777.308 97.5 777.808 97.6 778.108 97.7L778.508 98.65C775.958 98.7 773.958 99.95 773.958 102.3C773.958 105.25 777.458 107.85 782.158 107.85C786.658 107.85 789.008 105.5 789.008 102.9C789.008 101.2 787.958 99.9 786.008 99.3C783.858 98.6 781.608 97.8 779.658 97.2C777.508 96.6 775.508 95.4 775.508 92.9C775.508 91.05 776.958 89.6 779.208 88.9C778.258 87.9 777.858 86.55 777.858 84.95C777.858 80.2 781.658 74.95 786.908 74.95ZM786.958 76.3H786.908C785.608 76.3 784.408 76.85 783.408 78.2C781.858 80.15 780.958 83.15 780.958 85.65C780.958 88.4 782.458 89.4 783.958 89.4C785.208 89.4 786.308 88.85 787.208 87.85C788.858 85.95 789.908 82.7 789.908 80.05C789.908 77.55 788.758 76.3 786.958 76.3ZM812.904 89.45L813.004 91.8C810.504 95.8 806.304 97.7 802.654 97.7C798.654 97.7 796.554 95.15 796.554 90.85C796.554 85.85 798.904 80.4 803.004 77.15C804.854 75.7 806.954 74.95 809.204 74.95C813.354 74.95 814.454 77.55 814.454 79.9C814.454 82.2 812.654 83.5 810.804 84.35C808.104 85.65 803.554 86.7 800.354 87.1C800.154 88.05 800.004 89.45 800.004 90.5C800.004 93.45 801.154 95.75 804.054 95.75C807.804 95.75 810.554 93.4 812.154 89.45H812.904ZM808.704 76.35H808.554C806.154 76.35 802.654 78.65 800.704 85.5C803.204 85.25 806.804 84.35 808.504 83.6C810.404 82.65 811.354 81.35 811.354 79.5C811.354 77.55 810.404 76.35 808.704 76.35Z" fill="black"/>
<rect x="367.5" y="157" width="96" height="10" fill="url(#paint0_linear_618_4568)"/>
<defs>
<linearGradient id="paint0_linear_618_4568" x1="420.094" y1="167" x2="419.112" y2="152.376" gradientUnits="userSpaceOnUse">
<stop stop-color="#B40904"/>
<stop offset="0.59677" stop-color="#FF7059"/>
<stop offset="0.877421" stop-color="#FFA8BE"/>
</linearGradient>
</defs>
</svg>
