<svg width="798" height="167" viewBox="0 0 798 167" fill="none" xmlns="http://www.w3.org/2000/svg">
<path d="M120.394 4.6L120.894 3.3C122.644 3.3 124.744 3.45 126.494 3.45C128.594 3.45 130.694 3.3 132.244 3.3L131.794 4.6L129.494 4.85C128.494 4.95 128.144 5.25 127.744 6.35C127.144 7.9 125.894 11.95 123.894 19.1C121.994 25.85 120.744 30.25 120.394 32C120.144 33.25 120.494 33.5 121.394 33.6L124.194 33.85L123.744 35.15C122.094 35.15 119.244 35 117.544 35C115.394 35 113.394 35.15 111.844 35.15L112.294 33.85L114.494 33.65C115.794 33.5 116.244 33.2 116.694 31.85C117.294 30.05 118.194 27.2 120.544 19.1C122.694 11.75 123.494 8.65 124.044 6.45C124.344 5.25 124.144 4.9 123.044 4.8L120.394 4.6ZM144.605 12.8L145.555 13.4C144.755 15.3 143.655 18.1 142.955 21L141.805 21.1C142.605 16.9 141.505 14.35 138.305 14.35C135.955 14.35 134.505 16.15 134.505 18.25C134.505 19.7 135.055 20.55 136.105 21.4C137.155 22.25 139.005 23.65 140.205 24.55C141.855 25.7 142.655 26.85 142.655 29.05C142.605 31.2 141.505 32.85 140.205 33.9C138.855 35.05 136.805 35.7 134.355 35.7C132.105 35.7 129.455 35 127.555 33.7C128.105 32.4 128.955 29.55 129.755 26.8L131.005 26.6C130.705 27.5 130.455 29.2 130.405 30.1C130.355 32.7 131.855 34.3 135.105 34.3C137.305 34.3 139.555 33.05 139.605 30.35C139.605 28.85 139.005 28.05 137.905 27.2C136.955 26.35 135.555 25.2 134.305 24.2C132.755 23.1 131.605 21.7 131.605 19.5C131.605 17.5 132.405 15.85 134.005 14.55C135.305 13.45 136.905 12.95 138.855 12.95C140.855 12.95 142.655 13.75 143.305 14.7L144.605 12.8ZM178.972 28.65L179.922 29.6C178.672 32.2 176.122 35.7 172.722 35.7C170.272 35.7 170.272 33.05 170.972 30.6C171.122 30.1 171.322 29.25 171.472 28.65H171.372C169.222 31.9 165.372 35.7 161.172 35.7C158.372 35.7 157.222 33.55 157.222 30.65C157.222 25.15 160.722 17.8 165.722 14.65C167.622 13.45 169.322 12.95 171.072 12.95C173.072 12.95 174.772 13.75 175.322 15.3L175.872 13.55H178.972C177.122 18.95 174.622 27.25 173.672 31.8C173.472 32.75 173.522 33.6 174.222 33.6C175.722 33.6 177.772 31.2 178.972 28.65ZM160.622 30.5V30.55C160.622 32.05 161.172 33.6 162.722 33.6C165.272 33.6 168.072 31.4 170.672 27.25C172.022 25.1 174.272 19.7 174.322 17.8C174.322 15.3 172.822 14.45 171.222 14.45C169.322 14.45 167.572 15.2 165.622 17.45C162.722 20.9 160.622 26.3 160.622 30.5ZM203.978 28.7L204.878 29.7C202.878 33.65 199.828 35.75 197.328 35.75C194.678 35.75 194.878 33 196.028 29.9C197.428 26.15 199.028 21.8 200.278 18.25C200.878 16.6 200.678 15 198.878 15C193.928 15 189.028 23.05 186.978 28.65C186.328 30.45 185.628 32.15 184.728 35.1C183.578 35.2 182.478 35.35 181.428 35.5C183.778 29.3 186.528 19.9 187.278 16.2C187.378 15.55 187.328 15.35 186.828 15.35L183.728 15.4L184.178 14.15C186.478 13.9 189.078 13.6 191.328 12.95C190.428 15.9 189.478 19.35 188.678 21.95C191.528 17.65 195.378 12.95 200.378 12.95C201.378 12.95 202.278 13.25 202.778 13.7C204.228 15 203.628 17.85 202.978 19.6C201.628 23.35 199.728 28.15 198.578 31.95C198.278 32.9 198.378 33.55 198.978 33.55C200.478 33.55 202.678 31.25 203.978 28.7ZM230.915 12.95H230.965C235.265 12.95 237.565 15.65 237.565 20.25C237.565 25.05 235.115 30.9 231.265 33.7C229.165 35.15 227.265 35.7 224.865 35.7C221.915 35.7 218.165 34.4 218.165 28.75C218.165 23.7 220.815 17.65 225.065 14.75C226.715 13.65 228.715 12.95 230.915 12.95ZM230.715 14.3H230.665C228.665 14.3 226.865 15.4 225.215 17.65C223.065 20.5 221.415 25.65 221.415 29.25C221.415 33.05 223.315 34.3 225.265 34.3C226.965 34.3 228.515 33.6 229.965 32C232.565 28.95 234.365 23.1 234.365 19.1C234.365 16.15 233.215 14.3 230.715 14.3ZM243.38 15.3L240.58 15.35L241.03 14.15C243.28 13.9 245.63 13.65 247.78 12.95C247.28 15.8 247.08 19.8 246.93 24.4C246.83 26.9 246.73 30 246.73 32.05C251.13 27.4 256.63 20.15 256.83 15.9C256.88 14.9 256.73 14.15 256.63 13.65C257.63 13.05 258.83 12.5 259.18 12.5C259.48 12.5 259.98 13.65 259.98 14.95C259.98 16.1 259.53 17.55 258.38 19.5C255.93 23.5 248.78 32.1 245.98 35.25C245.13 35.3 244.23 35.5 243.48 35.7C243.88 28.05 244.33 19.65 244.13 16.1C244.13 15.6 244.03 15.3 243.38 15.3ZM277.776 27.45L277.876 29.8C275.376 33.8 271.176 35.7 267.526 35.7C263.526 35.7 261.426 33.15 261.426 28.85C261.426 23.85 263.776 18.4 267.876 15.15C269.726 13.7 271.826 12.95 274.076 12.95C278.226 12.95 279.326 15.55 279.326 17.9C279.326 20.2 277.526 21.5 275.676 22.35C272.976 23.65 268.426 24.7 265.226 25.1C265.026 26.05 264.876 27.45 264.876 28.5C264.876 31.45 266.026 33.75 268.926 33.75C272.676 33.75 275.426 31.4 277.026 27.45H277.776ZM273.576 14.35H273.426C271.026 14.35 267.526 16.65 265.576 23.5C268.076 23.25 271.676 22.35 273.376 21.6C275.276 20.65 276.226 19.35 276.226 17.5C276.226 15.55 275.276 14.35 273.576 14.35ZM282.646 15.45L283.146 14.15C285.396 13.95 288.046 13.55 289.946 12.95C289.646 14.9 288.496 19.2 287.896 21.6H288.046C290.946 16.05 293.496 12.95 296.496 12.95C298.246 12.95 298.746 14.4 298.746 15.25C298.746 17.15 297.496 17.8 296.746 17.8C296.096 17.8 295.746 17.45 295.596 16.85C295.446 16.15 295.146 15.75 294.496 15.75C292.396 15.75 289.346 21.2 287.696 25.25C286.546 28.05 285.396 31.3 284.246 35.1C283.046 35.2 281.796 35.3 280.896 35.5C283.196 29.05 285.846 19.8 286.246 16.2C286.296 15.65 286.046 15.4 285.646 15.4C285.046 15.4 283.546 15.4 282.646 15.45ZM320.677 28.7L321.577 29.7C319.577 33.65 316.527 35.75 314.027 35.75C311.377 35.75 311.577 33 312.727 29.9C314.127 26.15 315.727 21.8 316.977 18.25C317.577 16.6 317.377 15 315.577 15C310.627 15 305.727 23.05 303.677 28.65C303.027 30.45 302.327 32.15 301.427 35.1C300.277 35.2 299.177 35.35 298.127 35.5C300.477 29.3 303.227 19.9 303.977 16.2C304.077 15.55 304.027 15.35 303.527 15.35L300.427 15.4L300.877 14.15C303.177 13.9 305.777 13.6 308.027 12.95C307.127 15.9 306.177 19.35 305.377 21.95C308.227 17.65 312.077 12.95 317.077 12.95C318.077 12.95 318.977 13.25 319.477 13.7C320.927 15 320.327 17.85 319.677 19.6C318.327 23.35 316.427 28.15 315.277 31.95C314.977 32.9 315.077 33.55 315.677 33.55C317.177 33.55 319.377 31.25 320.677 28.7ZM333.92 3.55H333.97C335.12 3.55 335.67 4.35 335.62 5.6C335.57 7 334.47 8 333.27 8C332.27 8 331.52 7.3 331.57 6.05C331.62 4.5 332.87 3.55 333.92 3.55ZM326.07 15.45L326.52 14.15C328.72 13.9 331.72 13.6 333.82 12.95L333.97 13.15C332.42 16.6 328.97 27.65 327.87 31.9C327.62 32.9 327.57 33.6 328.22 33.6C329.87 33.6 332.22 30.9 333.27 28.65L334.17 29.65C332.17 33.6 329.27 35.7 326.57 35.7C324.02 35.7 324.32 33.2 325.22 30.3C326.47 26.4 328.57 20.2 329.72 16.15C329.92 15.5 329.82 15.3 329.22 15.35C328.57 15.35 327.27 15.35 326.07 15.45ZM348.167 12.95H348.217C350.017 12.95 351.467 13.35 352.667 14.55C353.517 13.95 354.267 13.55 354.917 13.25C355.617 13 356.217 12.85 356.817 12.85C357.817 12.85 358.517 13.6 358.517 14C358.517 14.55 357.517 15.5 356.917 15.85C355.917 15.2 354.517 15.05 353.367 15.55C353.867 16.3 354.117 17.55 354.117 18.7C354.117 23.75 350.617 28.75 345.117 28.75C343.817 28.75 342.267 28.3 341.417 27.7C340.217 28.1 339.417 28.85 339.417 29.9C339.417 30.75 340.167 31.55 341.817 32.1C343.667 32.7 346.267 33.5 348.517 34.2C351.217 34.95 353.267 36.5 353.267 39.6C353.267 45.3 347.317 47.5 342.217 47.5C338.117 47.5 332.367 45.4 332.367 40.5C332.367 37.45 335.117 35.5 338.117 35.5C338.567 35.5 339.067 35.6 339.367 35.7L339.767 36.65C337.217 36.7 335.217 37.95 335.217 40.3C335.217 43.25 338.717 45.85 343.417 45.85C347.917 45.85 350.267 43.5 350.267 40.9C350.267 39.2 349.217 37.9 347.267 37.3C345.117 36.6 342.867 35.8 340.917 35.2C338.767 34.6 336.767 33.4 336.767 30.9C336.767 29.05 338.217 27.6 340.467 26.9C339.517 25.9 339.117 24.55 339.117 22.95C339.117 18.2 342.917 12.95 348.167 12.95ZM348.217 14.3H348.167C346.867 14.3 345.667 14.85 344.667 16.2C343.117 18.15 342.217 21.15 342.217 23.65C342.217 26.4 343.717 27.4 345.217 27.4C346.467 27.4 347.567 26.85 348.467 25.85C350.117 23.95 351.167 20.7 351.167 18.05C351.167 15.55 350.017 14.3 348.217 14.3ZM361.473 3.1L361.973 1.9C363.273 1.85 367.673 1.55 369.623 1C368.873 2.8 366.373 10.65 363.473 20.75C366.123 17.15 370.273 12.95 374.873 12.95C376.123 12.95 376.773 13.35 377.323 13.85C378.523 15.05 377.973 17.9 377.423 19.55C375.823 24.25 374.073 28.8 373.123 31.85C372.823 32.7 372.773 33.6 373.523 33.6C375.073 33.6 377.223 31.15 378.423 28.65L379.373 29.7C377.323 33.7 374.573 35.75 371.973 35.75C369.273 35.75 369.523 32.9 370.623 29.8C372.273 24.9 373.973 20.4 374.773 17.9C375.123 16.7 375.273 14.85 373.323 14.85C371.173 14.85 368.073 16.85 364.973 21.15C363.123 23.75 362.123 26.15 361.273 28.75C360.673 30.65 360.073 32.45 359.323 35.15C358.623 35.15 357.273 35.3 356.073 35.45C357.273 31.55 359.573 24.6 361.873 16.35C364.123 8.45 364.873 5.7 365.323 3.9C365.423 3.35 365.323 3.1 364.623 3.1H361.473ZM392.829 28.2L393.529 29.75C391.579 33.7 387.929 35.7 385.329 35.7C381.679 35.7 382.279 32.95 382.929 30.7C384.329 26 386.529 19.05 387.579 15.55L383.979 15.15L384.629 13.8H388.079C388.879 11.45 389.479 9.3 389.929 7.8C391.429 7.45 392.529 7.2 393.579 6.75C393.179 7.8 392.029 11.1 391.179 13.8H396.779L396.079 15.15L390.629 15.55C389.679 18.4 386.679 28.1 385.779 31.9C385.529 33 385.579 33.85 386.779 33.85C389.179 33.85 391.729 30.75 392.829 28.2ZM411.283 3L411.783 1.75C414.483 1.7 417.483 1.4 419.333 0.949997C418.333 3.6 416.683 8.5 414.383 16.35C412.033 24.2 410.483 29.5 409.983 31.95C409.733 33.05 409.883 33.6 410.533 33.6C411.833 33.6 414.183 31.4 415.483 28.6L416.483 29.6C414.383 33.75 411.333 35.75 408.833 35.75C406.183 35.75 406.583 32.75 407.383 30.1C408.533 26.15 409.733 22.35 411.333 16.8C413.633 9.05 414.433 6 414.983 3.85C415.183 3.2 414.933 3 414.383 3H411.283ZM435.393 27.45L435.493 29.8C432.993 33.8 428.793 35.7 425.143 35.7C421.143 35.7 419.043 33.15 419.043 28.85C419.043 23.85 421.393 18.4 425.493 15.15C427.343 13.7 429.443 12.95 431.693 12.95C435.843 12.95 436.943 15.55 436.943 17.9C436.943 20.2 435.143 21.5 433.293 22.35C430.593 23.65 426.043 24.7 422.843 25.1C422.643 26.05 422.493 27.45 422.493 28.5C422.493 31.45 423.643 33.75 426.543 33.75C430.293 33.75 433.043 31.4 434.643 27.45H435.393ZM431.193 14.35H431.043C428.643 14.35 425.143 16.65 423.193 23.5C425.693 23.25 429.293 22.35 430.993 21.6C432.893 20.65 433.843 19.35 433.843 17.5C433.843 15.55 432.893 14.35 431.193 14.35ZM460.906 28.65L461.856 29.6C460.606 32.2 458.056 35.7 454.656 35.7C452.206 35.7 452.206 33.05 452.906 30.6C453.056 30.1 453.256 29.25 453.406 28.65H453.306C451.156 31.9 447.306 35.7 443.106 35.7C440.306 35.7 439.156 33.55 439.156 30.65C439.156 25.15 442.656 17.8 447.656 14.65C449.556 13.45 451.256 12.95 453.006 12.95C455.006 12.95 456.706 13.75 457.256 15.3L457.806 13.55H460.906C459.056 18.95 456.556 27.25 455.606 31.8C455.406 32.75 455.456 33.6 456.156 33.6C457.656 33.6 459.706 31.2 460.906 28.65ZM442.556 30.5V30.55C442.556 32.05 443.106 33.6 444.656 33.6C447.206 33.6 450.006 31.4 452.606 27.25C453.956 25.1 456.206 19.7 456.256 17.8C456.256 15.3 454.756 14.45 453.156 14.45C451.256 14.45 449.506 15.2 447.556 17.45C444.656 20.9 442.556 26.3 442.556 30.5ZM466.866 15.3L464.066 15.35L464.516 14.15C466.766 13.9 469.116 13.65 471.266 12.95C470.766 15.8 470.566 19.8 470.416 24.4C470.316 26.9 470.216 30 470.216 32.05C474.616 27.4 480.116 20.15 480.316 15.9C480.366 14.9 480.216 14.15 480.116 13.65C481.116 13.05 482.316 12.5 482.666 12.5C482.966 12.5 483.466 13.65 483.466 14.95C483.466 16.1 483.016 17.55 481.866 19.5C479.416 23.5 472.266 32.1 469.466 35.25C468.616 35.3 467.716 35.5 466.966 35.7C467.366 28.05 467.816 19.65 467.616 16.1C467.616 15.6 467.516 15.3 466.866 15.3ZM501.262 27.45L501.362 29.8C498.862 33.8 494.662 35.7 491.012 35.7C487.012 35.7 484.912 33.15 484.912 28.85C484.912 23.85 487.262 18.4 491.362 15.15C493.212 13.7 495.312 12.95 497.562 12.95C501.712 12.95 502.812 15.55 502.812 17.9C502.812 20.2 501.012 21.5 499.162 22.35C496.462 23.65 491.912 24.7 488.712 25.1C488.512 26.05 488.362 27.45 488.362 28.5C488.362 31.45 489.512 33.75 492.412 33.75C496.162 33.75 498.912 31.4 500.512 27.45H501.262ZM497.062 14.35H496.912C494.512 14.35 491.012 16.65 489.062 23.5C491.562 23.25 495.162 22.35 496.862 21.6C498.762 20.65 499.712 19.35 499.712 17.5C499.712 15.55 498.762 14.35 497.062 14.35ZM505.126 25.25L506.076 22.65C509.526 22.75 512.576 22.75 516.476 22.65L515.526 25.25C511.826 25.15 508.576 25.15 505.126 25.25ZM529.184 3.55H529.234C530.384 3.55 530.934 4.35 530.884 5.6C530.834 7 529.734 8 528.534 8C527.534 8 526.784 7.3 526.834 6.05C526.884 4.5 528.134 3.55 529.184 3.55ZM521.334 15.45L521.784 14.15C523.984 13.9 526.984 13.6 529.084 12.95L529.234 13.15C527.684 16.6 524.234 27.65 523.134 31.9C522.884 32.9 522.834 33.6 523.484 33.6C525.134 33.6 527.484 30.9 528.534 28.65L529.434 29.65C527.434 33.6 524.534 35.7 521.834 35.7C519.284 35.7 519.584 33.2 520.484 30.3C521.734 26.4 523.834 20.2 524.984 16.15C525.184 15.5 525.084 15.3 524.484 15.35C523.834 15.35 522.534 15.35 521.334 15.45ZM553.88 28.7L554.78 29.7C552.78 33.65 549.73 35.75 547.23 35.75C544.58 35.75 544.78 33 545.93 29.9C547.33 26.15 548.93 21.8 550.18 18.25C550.78 16.6 550.58 15 548.78 15C543.83 15 538.93 23.05 536.88 28.65C536.23 30.45 535.53 32.15 534.63 35.1C533.48 35.2 532.38 35.35 531.33 35.5C533.68 29.3 536.43 19.9 537.18 16.2C537.28 15.55 537.23 15.35 536.73 15.35L533.63 15.4L534.08 14.15C536.38 13.9 538.98 13.6 541.23 12.95C540.33 15.9 539.38 19.35 538.58 21.95C541.43 17.65 545.28 12.95 550.28 12.95C551.28 12.95 552.18 13.25 552.68 13.7C554.13 15 553.53 17.85 552.88 19.6C551.53 23.35 549.63 28.15 548.48 31.95C548.18 32.9 548.28 33.55 548.88 33.55C550.38 33.55 552.58 31.25 553.88 28.7ZM583.668 12.8L584.618 13.4C583.818 15.3 582.718 18.1 582.018 21L580.868 21.1C581.668 16.9 580.568 14.35 577.368 14.35C575.018 14.35 573.568 16.15 573.568 18.25C573.568 19.7 574.118 20.55 575.168 21.4C576.218 22.25 578.068 23.65 579.268 24.55C580.918 25.7 581.718 26.85 581.718 29.05C581.668 31.2 580.568 32.85 579.268 33.9C577.918 35.05 575.868 35.7 573.418 35.7C571.168 35.7 568.518 35 566.618 33.7C567.168 32.4 568.018 29.55 568.818 26.8L570.068 26.6C569.768 27.5 569.518 29.2 569.468 30.1C569.418 32.7 570.918 34.3 574.168 34.3C576.368 34.3 578.618 33.05 578.668 30.35C578.668 28.85 578.068 28.05 576.968 27.2C576.018 26.35 574.618 25.2 573.368 24.2C571.818 23.1 570.668 21.7 570.668 19.5C570.668 17.5 571.468 15.85 573.068 14.55C574.368 13.45 575.968 12.95 577.918 12.95C579.918 12.95 581.718 13.75 582.368 14.7L583.668 12.8ZM602.532 27.45L602.632 29.8C600.132 33.8 595.932 35.7 592.282 35.7C588.282 35.7 586.182 33.15 586.182 28.85C586.182 23.85 588.532 18.4 592.632 15.15C594.482 13.7 596.582 12.95 598.832 12.95C602.982 12.95 604.082 15.55 604.082 17.9C604.082 20.2 602.282 21.5 600.432 22.35C597.732 23.65 593.182 24.7 589.982 25.1C589.782 26.05 589.632 27.45 589.632 28.5C589.632 31.45 590.782 33.75 593.682 33.75C597.432 33.75 600.182 31.4 601.782 27.45H602.532ZM598.332 14.35H598.182C595.782 14.35 592.282 16.65 590.332 23.5C592.832 23.25 596.432 22.35 598.132 21.6C600.032 20.65 600.982 19.35 600.982 17.5C600.982 15.55 600.032 14.35 598.332 14.35ZM607.401 15.45L607.901 14.15C610.151 13.95 612.801 13.55 614.701 12.95C614.401 14.9 613.251 19.2 612.651 21.6H612.801C615.701 16.05 618.251 12.95 621.251 12.95C623.001 12.95 623.501 14.4 623.501 15.25C623.501 17.15 622.251 17.8 621.501 17.8C620.851 17.8 620.501 17.45 620.351 16.85C620.201 16.15 619.901 15.75 619.251 15.75C617.151 15.75 614.101 21.2 612.451 25.25C611.301 28.05 610.151 31.3 609.001 35.1C607.801 35.2 606.551 35.3 605.651 35.5C607.951 29.05 610.601 19.8 611.001 16.2C611.051 15.65 610.801 15.4 610.401 15.4C609.801 15.4 608.301 15.4 607.401 15.45ZM645.678 28.65L646.578 29.6C644.978 32.9 642.228 35.75 639.228 35.75C636.528 35.75 636.928 32.9 637.728 30.35C637.928 29.8 637.978 29.6 638.328 28.45C635.378 32.8 631.478 35.7 627.728 35.7C624.028 35.7 623.678 33.35 624.828 29.55C626.078 25.3 628.728 17.6 629.178 16.05C629.328 15.55 629.228 15.3 628.578 15.35L625.578 15.45L626.178 14.15C628.428 13.9 631.778 13.55 633.678 12.95C632.378 15.05 628.778 25.85 627.628 30.7C627.178 32.55 627.778 33.6 629.078 33.6C633.428 33.6 637.828 27.85 639.928 22.55C640.878 20.1 641.878 17.15 642.128 16.05C642.228 15.65 642.228 15.35 641.528 15.35L638.528 15.45L639.028 14.15C641.378 13.9 644.328 13.6 646.428 12.95C644.478 17.8 641.428 26.75 640.278 31.9C640.028 32.85 640.028 33.65 640.728 33.65C642.228 33.65 644.478 31.15 645.678 28.65ZM683.575 28.7L684.525 29.7C682.525 33.7 679.575 35.75 676.975 35.75C674.375 35.75 674.425 33.1 675.575 30.1C677.075 25.95 678.625 22.1 680.025 18.2C680.625 16.55 680.375 14.95 678.725 14.95C674.175 14.95 668.825 23.1 666.775 28.9C666.175 30.55 665.475 32.3 664.625 35.2C663.425 35.25 662.125 35.35 661.175 35.5C662.975 30.65 665.825 22.25 666.825 18.4C667.225 16.95 667.375 14.95 665.425 14.95C661.475 14.95 655.925 22.7 653.625 29.05C653.025 30.7 652.375 32.5 651.525 35.2C650.425 35.25 649.125 35.35 648.175 35.5C650.825 28.65 653.375 19.8 654.125 16.15C654.225 15.55 654.075 15.3 653.475 15.3L650.425 15.4L650.825 14.15C653.025 13.85 656.075 13.55 658.225 12.95C657.325 15.65 656.225 19.8 655.475 22C658.025 18.2 661.825 12.95 667.025 12.95C670.475 12.95 670.425 16.1 669.475 19.15C669.175 20.1 668.975 20.8 668.675 21.75C671.225 17.9 675.225 12.95 680.275 12.95C681.375 12.95 682.125 13.3 682.625 13.8C683.925 15.2 683.225 18.1 682.625 19.7C681.225 23.55 679.125 28.9 678.125 31.95C677.825 32.85 677.825 33.6 678.625 33.6C680.125 33.6 682.375 31.25 683.575 28.7ZM152.937 90.2L153.637 91.75C151.687 95.7 148.037 97.7 145.437 97.7C141.787 97.7 142.387 94.95 143.037 92.7C144.437 88 146.637 81.05 147.687 77.55L144.087 77.15L144.737 75.8H148.187C148.987 73.45 149.587 71.3 150.037 69.8C151.537 69.45 152.637 69.2 153.687 68.75C153.287 69.8 152.137 73.1 151.287 75.8H156.887L156.187 77.15L150.737 77.55C149.787 80.4 146.787 90.1 145.887 93.9C145.637 95 145.687 95.85 146.887 95.85C149.287 95.85 151.837 92.75 152.937 90.2ZM160.497 65.1L160.997 63.9C162.297 63.85 166.697 63.55 168.647 63C167.897 64.8 165.397 72.65 162.497 82.75C165.147 79.15 169.297 74.95 173.897 74.95C175.147 74.95 175.797 75.35 176.347 75.85C177.547 77.05 176.997 79.9 176.447 81.55C174.847 86.25 173.097 90.8 172.147 93.85C171.847 94.7 171.797 95.6 172.547 95.6C174.097 95.6 176.247 93.15 177.447 90.65L178.397 91.7C176.347 95.7 173.597 97.75 170.997 97.75C168.297 97.75 168.547 94.9 169.647 91.8C171.297 86.9 172.997 82.4 173.797 79.9C174.147 78.7 174.297 76.85 172.347 76.85C170.197 76.85 167.097 78.85 163.997 83.15C162.147 85.75 161.147 88.15 160.297 90.75C159.697 92.65 159.097 94.45 158.347 97.15C157.647 97.15 156.297 97.3 155.097 97.45C156.297 93.55 158.597 86.6 160.897 78.35C163.147 70.45 163.897 67.7 164.347 65.9C164.447 65.35 164.347 65.1 163.647 65.1H160.497ZM202.898 90.65L203.848 91.6C202.598 94.2 200.048 97.7 196.648 97.7C194.198 97.7 194.198 95.05 194.898 92.6C195.048 92.1 195.248 91.25 195.398 90.65H195.298C193.148 93.9 189.298 97.7 185.098 97.7C182.298 97.7 181.148 95.55 181.148 92.65C181.148 87.15 184.648 79.8 189.648 76.65C191.548 75.45 193.248 74.95 194.998 74.95C196.998 74.95 198.698 75.75 199.248 77.3L199.798 75.55H202.898C201.048 80.95 198.548 89.25 197.598 93.8C197.398 94.75 197.448 95.6 198.148 95.6C199.648 95.6 201.698 93.2 202.898 90.65ZM184.548 92.5V92.55C184.548 94.05 185.098 95.6 186.648 95.6C189.198 95.6 191.998 93.4 194.598 89.25C195.948 87.1 198.198 81.7 198.248 79.8C198.248 77.3 196.748 76.45 195.148 76.45C193.248 76.45 191.498 77.2 189.548 79.45C186.648 82.9 184.548 88.3 184.548 92.5ZM216.804 90.2L217.504 91.75C215.554 95.7 211.904 97.7 209.304 97.7C205.654 97.7 206.254 94.95 206.904 92.7C208.304 88 210.504 81.05 211.554 77.55L207.954 77.15L208.604 75.8H212.054C212.854 73.45 213.454 71.3 213.904 69.8C215.404 69.45 216.504 69.2 217.554 68.75C217.154 69.8 216.004 73.1 215.154 75.8H220.754L220.054 77.15L214.604 77.55C213.654 80.4 210.654 90.1 209.754 93.9C209.504 95 209.554 95.85 210.754 95.85C213.154 95.85 215.704 92.75 216.804 90.2ZM234.307 77.3L231.457 77.35L231.907 76.1C234.007 75.95 236.807 75.65 238.957 74.95C238.257 77.15 237.407 87.15 236.807 93.35C239.357 89.9 244.907 81.9 246.407 79.35C246.607 78.35 246.707 77.05 246.857 75.8C247.907 75.75 249.157 75.45 250.107 75.2C249.557 78.05 249.307 83 249.157 87.8C249.057 90 249.007 92.6 249.057 94.15C252.757 89.9 258.307 82.9 258.457 78C258.507 77.1 258.407 76.2 258.357 75.7C259.257 75.1 260.307 74.6 260.607 74.6C260.957 74.6 261.557 75.75 261.507 77.25C261.457 78.5 261.157 79.8 260.107 81.8C258.257 85.15 251.807 93.4 248.407 97.25C247.457 97.35 246.557 97.55 245.907 97.7C245.907 94.85 246.057 87.55 246.357 82.2C245.357 83.65 239.557 91.6 236.007 97.25C235.307 97.35 234.357 97.55 233.557 97.7C234.157 92.2 235.207 80.85 235.207 78.2C235.207 77.6 235.057 77.25 234.307 77.3ZM276.033 74.95H276.083C280.383 74.95 282.683 77.65 282.683 82.25C282.683 87.05 280.233 92.9 276.383 95.7C274.283 97.15 272.383 97.7 269.983 97.7C267.033 97.7 263.283 96.4 263.283 90.75C263.283 85.7 265.933 79.65 270.183 76.75C271.833 75.65 273.833 74.95 276.033 74.95ZM275.833 76.3H275.783C273.783 76.3 271.983 77.4 270.333 79.65C268.183 82.5 266.533 87.65 266.533 91.25C266.533 95.05 268.433 96.3 270.383 96.3C272.083 96.3 273.633 95.6 275.083 94C277.683 90.95 279.483 85.1 279.483 81.1C279.483 78.15 278.333 76.3 275.833 76.3ZM286.649 77.45L287.149 76.15C289.399 75.95 292.049 75.55 293.949 74.95C293.649 76.9 292.499 81.2 291.899 83.6H292.049C294.949 78.05 297.499 74.95 300.499 74.95C302.249 74.95 302.749 76.4 302.749 77.25C302.749 79.15 301.499 79.8 300.749 79.8C300.099 79.8 299.749 79.45 299.599 78.85C299.449 78.15 299.149 77.75 298.499 77.75C296.399 77.75 293.349 83.2 291.699 87.25C290.549 90.05 289.399 93.3 288.249 97.1C287.049 97.2 285.799 97.3 284.899 97.5C287.199 91.05 289.849 81.8 290.249 78.2C290.299 77.65 290.049 77.4 289.649 77.4C289.049 77.4 287.549 77.4 286.649 77.45ZM306.45 65.05L306.9 63.85C309.15 63.7 312.75 63.45 314.45 62.95C312.2 69.05 309.55 78.35 307.65 84.85C310.15 84.15 312.5 81.9 313.9 80.15C315.9 77.75 318.2 74.9 320.65 74.9C322.2 74.9 322.8 75.75 322.8 76.65C322.8 77.8 322.05 78.25 321.45 78.35C321.1 78.4 320.8 78.25 320.55 78.05C320.25 77.7 319.8 77.55 319.4 77.55C318.5 77.55 317.3 78.35 315.15 80.9C313.9 82.4 312.45 83.7 311.55 84.2C313.55 84.5 314.85 86.55 315.2 88.9C315.45 90.45 315.6 91.9 315.8 93.4C315.95 94.7 316.45 95.5 317.2 95.5C318.2 95.5 319.9 94.05 321.35 90.7L322.35 91.55C320.5 96.25 317.6 97.9 315.65 97.9C313.65 97.9 312.85 96.2 312.5 93.6C312.35 91.85 312.25 90.35 312 88.65C311.8 87.05 311.05 85.55 309.6 85.55C308.8 85.55 307.6 86.35 307.15 86.9C305.95 90.75 304.9 94.4 304.15 97.1C303.05 97.15 301.7 97.25 300.8 97.35C301.6 95 303.75 88.15 306.2 79.75C308.5 72.1 309.55 68.2 310.1 65.9C310.25 65.3 310.05 65.1 309.4 65.05H306.45ZM340.894 74.8L341.844 75.4C341.044 77.3 339.944 80.1 339.244 83L338.094 83.1C338.894 78.9 337.794 76.35 334.594 76.35C332.244 76.35 330.794 78.15 330.794 80.25C330.794 81.7 331.344 82.55 332.394 83.4C333.444 84.25 335.294 85.65 336.494 86.55C338.144 87.7 338.944 88.85 338.944 91.05C338.894 93.2 337.794 94.85 336.494 95.9C335.144 97.05 333.094 97.7 330.644 97.7C328.394 97.7 325.744 97 323.844 95.7C324.394 94.4 325.244 91.55 326.044 88.8L327.294 88.6C326.994 89.5 326.744 91.2 326.694 92.1C326.644 94.7 328.144 96.3 331.394 96.3C333.594 96.3 335.844 95.05 335.894 92.35C335.894 90.85 335.294 90.05 334.194 89.2C333.244 88.35 331.844 87.2 330.594 86.2C329.044 85.1 327.894 83.7 327.894 81.5C327.894 79.5 328.694 77.85 330.294 76.55C331.594 75.45 333.194 74.95 335.144 74.95C337.144 74.95 338.944 75.75 339.594 76.7L340.894 74.8ZM366.511 74.95H366.561C370.861 74.95 373.161 77.65 373.161 82.25C373.161 87.05 370.711 92.9 366.861 95.7C364.761 97.15 362.861 97.7 360.461 97.7C357.511 97.7 353.761 96.4 353.761 90.75C353.761 85.7 356.411 79.65 360.661 76.75C362.311 75.65 364.311 74.95 366.511 74.95ZM366.311 76.3H366.261C364.261 76.3 362.461 77.4 360.811 79.65C358.661 82.5 357.011 87.65 357.011 91.25C357.011 95.05 358.911 96.3 360.861 96.3C362.561 96.3 364.111 95.6 365.561 94C368.161 90.95 369.961 85.1 369.961 81.1C369.961 78.15 368.811 76.3 366.311 76.3ZM397.728 90.7L398.628 91.7C396.628 95.65 393.578 97.75 391.078 97.75C388.428 97.75 388.628 95 389.778 91.9C391.178 88.15 392.778 83.8 394.028 80.25C394.628 78.6 394.428 77 392.628 77C387.678 77 382.778 85.05 380.728 90.65C380.078 92.45 379.378 94.15 378.478 97.1C377.328 97.2 376.228 97.35 375.178 97.5C377.528 91.3 380.278 81.9 381.028 78.2C381.128 77.55 381.078 77.35 380.578 77.35L377.478 77.4L377.928 76.15C380.228 75.9 382.828 75.6 385.078 74.95C384.178 77.9 383.228 81.35 382.428 83.95C385.278 79.65 389.128 74.95 394.128 74.95C395.128 74.95 396.028 75.25 396.528 75.7C397.978 77 397.378 79.85 396.728 81.6C395.378 85.35 393.478 90.15 392.328 93.95C392.028 94.9 392.128 95.55 392.728 95.55C394.228 95.55 396.428 93.25 397.728 90.7ZM433.415 90.65L434.365 91.6C433.115 94.2 430.565 97.7 427.165 97.7C424.715 97.7 424.715 95.05 425.415 92.6C425.565 92.1 425.765 91.25 425.915 90.65H425.815C423.665 93.9 419.815 97.7 415.615 97.7C412.815 97.7 411.665 95.55 411.665 92.65C411.665 87.15 415.165 79.8 420.165 76.65C422.065 75.45 423.765 74.95 425.515 74.95C427.515 74.95 429.215 75.75 429.765 77.3L430.315 75.55H433.415C431.565 80.95 429.065 89.25 428.115 93.8C427.915 94.75 427.965 95.6 428.665 95.6C430.165 95.6 432.215 93.2 433.415 90.65ZM415.065 92.5V92.55C415.065 94.05 415.615 95.6 417.165 95.6C419.715 95.6 422.515 93.4 425.115 89.25C426.465 87.1 428.715 81.7 428.765 79.8C428.765 77.3 427.265 76.45 425.665 76.45C423.765 76.45 422.015 77.2 420.065 79.45C417.165 82.9 415.065 88.3 415.065 92.5ZM440.921 65L441.421 63.75C444.121 63.7 447.121 63.4 448.971 62.95C447.971 65.6 446.321 70.5 444.021 78.35C441.671 86.2 440.121 91.5 439.621 93.95C439.371 95.05 439.521 95.6 440.171 95.6C441.471 95.6 443.821 93.4 445.121 90.6L446.121 91.6C444.021 95.75 440.971 97.75 438.471 97.75C435.821 97.75 436.221 94.75 437.021 92.1C438.171 88.15 439.371 84.35 440.971 78.8C443.271 71.05 444.071 68 444.621 65.85C444.821 65.2 444.571 65 444.021 65H440.921ZM452.689 65L453.189 63.75C455.889 63.7 458.889 63.4 460.739 62.95C459.739 65.6 458.089 70.5 455.789 78.35C453.439 86.2 451.889 91.5 451.389 93.95C451.139 95.05 451.289 95.6 451.939 95.6C453.239 95.6 455.589 93.4 456.889 90.6L457.889 91.6C455.789 95.75 452.739 97.75 450.239 97.75C447.589 97.75 447.989 94.75 448.789 92.1C449.939 88.15 451.139 84.35 452.739 78.8C455.039 71.05 455.839 68 456.389 65.85C456.589 65.2 456.339 65 455.789 65H452.689ZM474.657 65.1L475.157 63.9C476.457 63.85 480.857 63.55 482.807 63C482.057 64.8 479.557 72.65 476.657 82.75C479.307 79.15 483.457 74.95 488.057 74.95C489.307 74.95 489.957 75.35 490.507 75.85C491.707 77.05 491.157 79.9 490.607 81.55C489.007 86.25 487.257 90.8 486.307 93.85C486.007 94.7 485.957 95.6 486.707 95.6C488.257 95.6 490.407 93.15 491.607 90.65L492.557 91.7C490.507 95.7 487.757 97.75 485.157 97.75C482.457 97.75 482.707 94.9 483.807 91.8C485.457 86.9 487.157 82.4 487.957 79.9C488.307 78.7 488.457 76.85 486.507 76.85C484.357 76.85 481.257 78.85 478.157 83.15C476.307 85.75 475.307 88.15 474.457 90.75C473.857 92.65 473.257 94.45 472.507 97.15C471.807 97.15 470.457 97.3 469.257 97.45C470.457 93.55 472.757 86.6 475.057 78.35C477.307 70.45 478.057 67.7 478.507 65.9C478.607 65.35 478.507 65.1 477.807 65.1H474.657ZM517.058 90.65L518.008 91.6C516.758 94.2 514.208 97.7 510.808 97.7C508.358 97.7 508.358 95.05 509.058 92.6C509.208 92.1 509.408 91.25 509.558 90.65H509.458C507.308 93.9 503.458 97.7 499.258 97.7C496.458 97.7 495.308 95.55 495.308 92.65C495.308 87.15 498.808 79.8 503.808 76.65C505.708 75.45 507.408 74.95 509.158 74.95C511.158 74.95 512.858 75.75 513.408 77.3L513.958 75.55H517.058C515.208 80.95 512.708 89.25 511.758 93.8C511.558 94.75 511.608 95.6 512.308 95.6C513.808 95.6 515.858 93.2 517.058 90.65ZM498.708 92.5V92.55C498.708 94.05 499.258 95.6 500.808 95.6C503.358 95.6 506.158 93.4 508.758 89.25C510.108 87.1 512.358 81.7 512.408 79.8C512.408 77.3 510.908 76.45 509.308 76.45C507.408 76.45 505.658 77.2 503.708 79.45C500.808 82.9 498.708 88.3 498.708 92.5ZM529.819 65.55H529.869C531.019 65.55 531.569 66.35 531.519 67.6C531.469 69 530.369 70 529.169 70C528.169 70 527.419 69.3 527.469 68.05C527.519 66.5 528.769 65.55 529.819 65.55ZM521.969 77.45L522.419 76.15C524.619 75.9 527.619 75.6 529.719 74.95L529.869 75.15C528.319 78.6 524.869 89.65 523.769 93.9C523.519 94.9 523.469 95.6 524.119 95.6C525.769 95.6 528.119 92.9 529.169 90.65L530.069 91.65C528.069 95.6 525.169 97.7 522.469 97.7C519.919 97.7 520.219 95.2 521.119 92.3C522.369 88.4 524.469 82.2 525.619 78.15C525.819 77.5 525.719 77.3 525.119 77.35C524.469 77.35 523.169 77.35 521.969 77.45ZM533.915 77.45L534.415 76.15C536.665 75.95 539.315 75.55 541.215 74.95C540.915 76.9 539.765 81.2 539.165 83.6H539.315C542.215 78.05 544.765 74.95 547.765 74.95C549.515 74.95 550.015 76.4 550.015 77.25C550.015 79.15 548.765 79.8 548.015 79.8C547.365 79.8 547.015 79.45 546.865 78.85C546.715 78.15 546.415 77.75 545.765 77.75C543.665 77.75 540.615 83.2 538.965 87.25C537.815 90.05 536.665 93.3 535.515 97.1C534.315 97.2 533.065 97.3 532.165 97.5C534.465 91.05 537.115 81.8 537.515 78.2C537.565 77.65 537.315 77.4 536.915 77.4C536.315 77.4 534.815 77.4 533.915 77.45ZM571.394 90.2L572.094 91.75C570.144 95.7 566.494 97.7 563.894 97.7C560.244 97.7 560.844 94.95 561.494 92.7C562.894 88 565.094 81.05 566.144 77.55L562.544 77.15L563.194 75.8H566.644C567.444 73.45 568.044 71.3 568.494 69.8C569.994 69.45 571.094 69.2 572.144 68.75C571.744 69.8 570.594 73.1 569.744 75.8H575.344L574.644 77.15L569.194 77.55C568.244 80.4 565.244 90.1 564.344 93.9C564.094 95 564.144 95.85 565.344 95.85C567.744 95.85 570.294 92.75 571.394 90.2ZM575.053 76C577.103 75.9 580.153 75.45 581.953 74.85C581.853 78.85 582.453 89 582.703 93.55C584.403 90.3 586.503 86.25 588.753 82.25C591.203 77.95 593.753 74.85 597.403 74.8L597.503 75.9C595.153 76.45 592.353 80.2 590.203 83.65C587.153 88.55 584.003 94.15 581.403 99.3C577.553 106.6 575.153 109.2 571.853 109.2C569.403 109.2 568.453 107.5 568.453 106.1C568.453 104.6 569.603 103.9 570.303 103.9C571.103 103.9 571.503 104.35 571.703 105C572.003 106.1 572.503 106.6 573.253 106.6C575.203 106.6 577.103 104.5 580.253 98C579.953 97.55 579.853 96.6 579.803 95.6C579.653 89.35 579.003 80.95 578.653 78.25C578.553 77.35 578.153 77.15 574.653 77.25L575.053 76ZM596.735 81.35C598.935 80.25 600.935 78.7 602.185 76.7C602.585 75.55 603.385 72.65 603.585 71.9C604.385 71.65 606.135 71.1 606.885 70.75L607.035 70.95C605.985 74.05 604.535 78.75 603.435 82.3C605.835 78.95 609.435 74.95 613.735 74.95C616.885 74.95 618.385 77.55 618.385 80.7C618.385 86.75 614.585 94.15 609.085 96.7C607.635 97.4 606.085 97.7 604.785 97.7C602.785 97.7 600.785 97.05 599.785 95.45C598.435 99.95 597.335 104.1 597.035 105.45C596.785 106.6 597.085 106.85 597.885 106.95L600.985 107.25L600.635 108.5H596.785C594.485 108.5 591.385 108.6 588.935 108.9L589.385 107.6L591.435 107.25C592.535 107.05 593.135 106.75 593.485 105.75C595.635 99.7 599.285 87.25 601.285 80.15C600.235 81 598.385 82.05 597.335 82.4C597.135 82 596.935 81.65 596.735 81.35ZM612.435 76.85H612.385C609.585 76.85 606.685 80.05 604.585 83.3C602.785 85.9 601.035 90.25 601.035 92.55C601.035 95.05 602.835 96.25 604.885 96.25C606.735 96.25 608.635 95.25 610.385 93.15C612.885 90 614.985 84.8 614.985 80.55C614.985 78.6 614.135 76.85 612.435 76.85ZM637.737 89.45L637.837 91.8C635.337 95.8 631.137 97.7 627.487 97.7C623.487 97.7 621.387 95.15 621.387 90.85C621.387 85.85 623.737 80.4 627.837 77.15C629.687 75.7 631.787 74.95 634.037 74.95C638.187 74.95 639.287 77.55 639.287 79.9C639.287 82.2 637.487 83.5 635.637 84.35C632.937 85.65 628.387 86.7 625.187 87.1C624.987 88.05 624.837 89.45 624.837 90.5C624.837 93.45 625.987 95.75 628.887 95.75C632.637 95.75 635.387 93.4 636.987 89.45H637.737ZM633.537 76.35H633.387C630.987 76.35 627.487 78.65 625.537 85.5C628.037 85.25 631.637 84.35 633.337 83.6C635.237 82.65 636.187 81.35 636.187 79.5C636.187 77.55 635.237 76.35 633.537 76.35ZM657.496 74.8L658.446 75.4C657.646 77.3 656.546 80.1 655.846 83L654.696 83.1C655.496 78.9 654.396 76.35 651.196 76.35C648.846 76.35 647.396 78.15 647.396 80.25C647.396 81.7 647.946 82.55 648.996 83.4C650.046 84.25 651.896 85.65 653.096 86.55C654.746 87.7 655.546 88.85 655.546 91.05C655.496 93.2 654.396 94.85 653.096 95.9C651.746 97.05 649.696 97.7 647.246 97.7C644.996 97.7 642.346 97 640.446 95.7C640.996 94.4 641.846 91.55 642.646 88.8L643.896 88.6C643.596 89.5 643.346 91.2 643.296 92.1C643.246 94.7 644.746 96.3 647.996 96.3C650.196 96.3 652.446 95.05 652.496 92.35C652.496 90.85 651.896 90.05 650.796 89.2C649.846 88.35 648.446 87.2 647.196 86.2C645.646 85.1 644.496 83.7 644.496 81.5C644.496 79.5 645.296 77.85 646.896 76.55C648.196 75.45 649.796 74.95 651.746 74.95C653.746 74.95 655.546 75.75 656.196 76.7L657.496 74.8Z" fill="black"/>
<rect x="351" y="157" width="96" height="10" fill="url(#paint0_linear_501_2424)"/>
<defs>
<linearGradient id="paint0_linear_501_2424" x1="351" y1="160.333" x2="455.951" y2="158.055" gradientUnits="userSpaceOnUse">
<stop stop-color="#94130C"/>
<stop offset="0.294792" stop-color="#F68137"/>
<stop offset="0.59384" stop-color="#E4AB75"/>
<stop offset="0.933766" stop-color="#94130C"/>
</linearGradient>
</defs>
</svg>
